<?xml version="1.0" encoding="iso-8859-1"?>
<!-- Generator: Adobe Illustrator 19.0.0, SVG Export Plug-In . SVG Version: 6.00 Build 0)  -->
<svg version="1.1" id="Layer_1" xmlns="http://www.w3.org/2000/svg" xmlns:xlink="http://www.w3.org/1999/xlink" x="0px" y="0px"
	 viewBox="0 0 512 512" style="enable-background:new 0 0 512 512;" xml:space="preserve">
<path style="fill:#C9E3F7;" d="M458.962,314.06c-19.269-11.125-42.832-8.251-58.864,5.428l-17.324-10.001l36.622-15.643
	l-13.408-31.389l-60.163,25.699l-19.562-11.294L362.392,256l-36.13-20.859l19.562-11.294l60.163,25.699l13.408-31.389
	l-36.622-15.643l17.318-9.999c9.342,7.971,21.239,12.275,33.356,12.275c8.68,0,17.472-2.206,25.514-6.849
	c24.449-14.116,32.856-45.492,18.74-69.94c-14.115-24.449-45.491-32.858-69.94-18.74c-19.269,11.125-28.563,32.967-24.732,53.693
	l-17.323,10.001l4.764-39.537l-33.889-4.082l-7.825,64.952l-19.562,11.295v-41.719l-36.129,20.858v-22.588l52.338-39.253
	l-20.48-27.307l-31.858,23.893V99.465C292.931,92.419,307.2,73.449,307.2,51.2C307.2,22.968,284.231,0,256,0s-51.2,22.968-51.2,51.2
	c0,22.249,14.269,41.219,34.133,48.265v20.002l-31.858-23.893l-20.48,27.307l52.338,39.253v22.588l-36.129-20.859v41.719
	l-19.562-11.295l-7.824-64.952l-33.889,4.082l4.763,39.537l-17.322-10.001c3.83-20.725-5.464-42.568-24.732-53.693
	c-24.45-14.116-55.824-5.708-69.94,18.74c-14.115,24.449-5.709,55.824,18.74,69.94c8.043,4.644,16.832,6.849,25.514,6.849
	c12.115,0,24.013-4.304,33.355-12.275l17.319,9.999l-36.622,15.643l13.408,31.389l60.163-25.699l19.562,11.294L149.607,256
	l36.13,20.859l-19.562,11.294l-60.163-25.699l-13.408,31.389l36.622,15.643l-17.324,10.001
	c-16.035-13.68-39.598-16.551-58.864-5.428c-24.449,14.116-32.856,45.492-18.74,69.94c9.472,16.408,26.716,25.59,44.427,25.59
	c8.679,0,17.472-2.206,25.514-6.849c19.269-11.125,28.563-32.967,24.732-53.693l17.322-10.001l-4.763,39.537l33.889,4.082
	l7.824-64.952l19.562-11.295v41.719l36.129-20.858v22.588l-52.338,39.253l20.48,27.307l31.858-23.893v20.002
	c-19.864,7.045-34.133,26.015-34.133,48.265c0,28.232,22.968,51.2,51.2,51.2s51.2-22.968,51.2-51.2
	c0-22.249-14.269-41.219-34.133-48.265v-20.002l31.858,23.893l20.48-27.307l-52.338-39.253v-22.588l36.129,20.859v-41.719
	l19.562,11.295l7.825,64.952l33.889-4.082l-4.764-39.537l17.323,10.001c-3.83,20.725,5.464,42.568,24.732,53.693
	c8.043,4.644,16.832,6.849,25.514,6.849c17.707,0,34.955-9.184,44.427-25.59C491.818,359.551,483.411,328.176,458.962,314.06z
	 M418.581,349.867c4.706-8.151,15.167-10.951,23.314-6.248c8.149,4.706,10.952,15.164,6.246,23.314
	c-4.705,8.15-15.161,10.952-23.313,6.248C416.679,368.475,413.877,358.017,418.581,349.867z M275.062,289.017L256,278.011
	l-19.062,11.006v-22.011L217.874,256l19.063-11.006v-22.011L256,233.989l19.062-11.006v22.011L294.126,256l-19.063,11.006V289.017z
	 M433.333,136.537c5.903,0,11.651,3.061,14.809,8.53c4.706,8.15,1.902,18.608-6.246,23.314c-8.152,4.704-18.609,1.902-23.314-6.248
	c-4.705-8.15-1.902-18.608,6.248-23.314C427.509,137.272,430.439,136.537,433.333,136.537z M256,34.133
	c9.411,0,17.067,7.656,17.067,17.067S265.41,68.267,256,68.267c-9.411,0-17.067-7.656-17.067-17.067S246.589,34.133,256,34.133z
	 M70.104,168.381c-8.149-4.706-10.952-15.164-6.246-23.314c3.157-5.469,8.905-8.53,14.809-8.53c2.893,0,5.823,0.735,8.505,2.282
	c8.15,4.706,10.952,15.164,6.248,23.313C88.713,170.284,78.253,173.084,70.104,168.381z M63.858,366.933
	c-4.706-8.15-1.902-18.608,6.246-23.314c8.15-4.706,18.607-1.902,23.314,6.248c4.705,8.15,1.902,18.608-6.248,23.314
	C79.018,377.884,68.562,375.083,63.858,366.933z M256,477.867c-9.411,0-17.067-7.656-17.067-17.067s7.656-17.067,17.067-17.067
	c9.411,0,17.067,7.656,17.067,17.067S265.41,477.867,256,477.867z"/>
<path style="fill:#AED5F3;" d="M458.962,314.06c-19.269-11.125-42.832-8.251-58.864,5.428l-17.324-10.001l36.622-15.643
	l-13.408-31.389l-60.163,25.699l-19.562-11.294L362.392,256l-36.13-20.859l19.562-11.294l60.163,25.699l13.408-31.389
	l-36.622-15.643l17.318-9.999c9.342,7.971,21.239,12.275,33.356,12.275c8.68,0,17.472-2.206,25.514-6.849
	c24.449-14.116,32.856-45.492,18.74-69.94c-14.115-24.449-45.491-32.858-69.94-18.74c-19.269,11.125-28.563,32.967-24.732,53.693
	l-17.323,10.001l4.764-39.537l-33.889-4.082l-7.825,64.952l-19.562,11.295v-41.719l-36.129,20.858v-22.588l52.338-39.253
	l-20.48-27.307l-31.858,23.893V99.465C292.931,92.419,307.2,73.449,307.2,51.2C307.2,22.968,284.231,0,256,0v34.133
	c9.411,0,17.067,7.656,17.067,17.067S265.41,68.267,256,68.267v165.722l19.062-11.006v22.011L294.126,256l-19.063,11.006v22.011
	L256,278.011v165.722c9.411,0,17.067,7.656,17.067,17.067S265.41,477.867,256,477.867V512c28.232,0,51.2-22.968,51.2-51.2
	c0-22.249-14.269-41.219-34.133-48.265v-20.002l31.858,23.893l20.48-27.307l-52.338-39.253v-22.588l36.129,20.859v-41.719
	l19.562,11.295l7.825,64.952l33.889-4.082l-4.764-39.537l17.323,10.001c-3.83,20.725,5.464,42.568,24.732,53.693
	c8.043,4.644,16.832,6.849,25.514,6.849c17.707,0,34.955-9.184,44.427-25.59C491.818,359.551,483.411,328.176,458.962,314.06z
	 M424.829,138.819c2.681-1.547,5.612-2.282,8.505-2.282c5.903,0,11.651,3.061,14.809,8.53c4.706,8.15,1.902,18.608-6.246,23.314
	c-8.152,4.704-18.609,1.902-23.314-6.248C413.878,153.983,416.679,143.525,424.829,138.819z M448.142,366.933
	c-4.705,8.15-15.161,10.952-23.313,6.248c-8.15-4.706-10.952-15.164-6.248-23.313c4.706-8.151,15.167-10.951,23.314-6.248
	C450.044,348.325,452.848,358.783,448.142,366.933z"/>
<g>
</g>
<g>
</g>
<g>
</g>
<g>
</g>
<g>
</g>
<g>
</g>
<g>
</g>
<g>
</g>
<g>
</g>
<g>
</g>
<g>
</g>
<g>
</g>
<g>
</g>
<g>
</g>
<g>
</g>
</svg>
