<?xml version="1.0" encoding="iso-8859-1"?>
<!-- Generator: Adobe Illustrator 19.0.0, SVG Export Plug-In . SVG Version: 6.00 Build 0)  -->
<svg version="1.1" id="Layer_1" xmlns="http://www.w3.org/2000/svg" xmlns:xlink="http://www.w3.org/1999/xlink" x="0px" y="0px"
	 viewBox="0 0 512 512" style="enable-background:new 0 0 512 512;" xml:space="preserve">
<path style="fill:#C9E3F7;" d="M481.53,323.044l-5.813-33.635l-98.294,16.988l-1.24-0.716l-19.449-26.904l-16.098-22.27
	l16.364-22.075l21.263-28.683l97.454,16.844l5.813-33.635l-57.932-10.012l62.638-36.164l-17.067-29.559l-62.637,36.163
	l20.295-55.177l-32.035-11.783l-34.435,93.619l-1.241,0.717l-33.024,3.391l-27.335,2.807l-10.935-25.21l-14.21-32.757l63.314-75.976
	l-26.22-21.852l-37.638,45.164V0h-34.133v72.327l-37.638-45.164l-26.221,21.852l63.859,76.63v1.434l-13.575,30.293l-11.237,25.077
	l-27.3-3.135l-35.473-4.072l-34.14-92.82L85.174,94.207l20.295,55.178L42.832,113.22L25.765,142.78l62.638,36.164l-57.932,10.012
	l5.813,33.635l98.294-16.988l1.241,0.717l19.449,26.904l16.098,22.27l-16.365,22.075l-21.263,28.685l-97.455-16.845l-5.813,33.635
	l57.932,10.012L25.765,369.22l17.067,29.559l62.638-36.164l-20.296,55.178l32.035,11.783l34.435-93.619l1.24-0.716l33.024-3.391
	l27.335-2.807l10.935,25.21l14.21,32.757l-63.314,75.976l26.221,21.852l37.638-45.166V512h34.133v-72.327l37.638,45.164
	l26.221-21.852l-63.859-76.63v-1.434l13.575-30.294l11.237-25.077l27.3,3.133l35.473,4.073l34.14,92.82l32.035-11.783
	l-20.295-55.177l62.637,36.163l17.067-29.559l-62.638-36.164L481.53,323.044z M256,340.669l-21.387-48.133l-52.192,5.359
	l31.245-42.148l-30.737-42.52l52.124,5.984L256,171.331l21.387,48.133l52.192-5.359l-31.245,42.148l30.737,42.52l-52.124-5.984
	L256,340.669z"/>
<polygon style="fill:#AED5F3;" points="481.53,323.044 475.717,289.409 377.424,306.397 376.182,305.681 356.734,278.777 
	340.636,256.507 356.999,234.431 378.263,205.748 475.717,222.591 481.53,188.956 423.598,178.944 486.235,142.78 469.168,113.22 
	406.531,149.383 426.827,94.207 394.792,82.424 360.357,176.043 359.116,176.758 326.092,180.15 298.757,182.957 287.821,157.748 
	273.612,124.991 336.926,49.015 310.704,27.163 273.067,72.327 273.067,0 256,0 256,171.331 277.387,219.465 329.579,214.105 
	298.334,256.254 329.072,298.774 276.948,292.789 256,340.669 256,512 273.067,512 273.067,439.673 310.704,484.837 
	336.926,462.985 273.067,386.354 273.067,384.922 286.641,354.626 297.879,329.551 325.178,332.684 360.652,336.757 
	394.792,429.576 426.827,417.793 406.531,362.617 469.168,398.78 486.235,369.22 423.598,333.056 "/>
<g>
</g>
<g>
</g>
<g>
</g>
<g>
</g>
<g>
</g>
<g>
</g>
<g>
</g>
<g>
</g>
<g>
</g>
<g>
</g>
<g>
</g>
<g>
</g>
<g>
</g>
<g>
</g>
<g>
</g>
</svg>
