<?xml version="1.0" encoding="iso-8859-1"?>
<!-- Generator: Adobe Illustrator 19.0.0, SVG Export Plug-In . SVG Version: 6.00 Build 0)  -->
<svg version="1.1" id="Layer_1" xmlns="http://www.w3.org/2000/svg" xmlns:xlink="http://www.w3.org/1999/xlink" x="0px" y="0px"
	 viewBox="0 0 512 512" style="enable-background:new 0 0 512 512;" xml:space="preserve">
<path style="fill:#C9E3F7;" d="M512,238.933h-43.814l18.625-31.042l-29.269-17.562l-29.161,48.604h-23.546l3.89-11.669
	l-32.382-10.794l-7.489,22.463h-52.661c-1.343-4.723-3.219-9.219-5.572-13.419l37.246-37.246l21.18,10.589l15.264-30.53
	l-11.002-5.501l16.65-16.65l54.989,13.748l8.277-33.114l-35.12-8.779l30.981-30.981l-24.136-24.136L393.97,93.895l-8.78-35.12
	l-33.114,8.277l13.747,54.989l-16.651,16.65l-5.501-11.002l-30.53,15.264l10.59,21.18l-37.246,37.246
	c-4.198-2.353-8.697-4.23-13.419-5.571v-52.662l22.463-7.488l-10.793-32.382l-11.669,3.888V83.619l48.604-29.161l-17.563-29.269
	l-31.041,18.624V0h-34.133v43.812l-31.041-18.625L190.33,54.456l48.604,29.162v23.547l-11.67-3.89l-10.793,32.382l22.463,7.488
	v52.662c-4.722,1.341-9.219,3.219-13.419,5.571l-37.246-37.246l10.59-21.18l-30.53-15.264l-5.501,11.002l-16.651-16.65
	l13.747-54.989l-33.114-8.277l-8.78,35.12L87.049,62.912L62.913,87.049l30.981,30.981l-35.12,8.779l8.277,33.114l54.989-13.748
	l16.65,16.65l-11.002,5.501l15.264,30.53l21.18-10.589l37.246,37.246c-2.353,4.2-4.231,8.696-5.572,13.419h-52.661l-7.488-22.464
	l-32.382,10.794l3.889,11.671H83.619l-29.162-48.602l-29.269,17.562l18.625,31.041H0v34.133h43.812l-18.624,31.042l29.269,17.562
	l29.161-48.604h23.546l-3.89,11.669l32.382,10.794l7.489-22.463h52.661c1.341,4.723,3.219,9.219,5.572,13.419l-37.246,37.246
	l-21.18-10.589l-15.264,30.53l11.002,5.501l-16.65,16.65l-54.989-13.748l-8.277,33.114l35.12,8.779L62.913,424.95l24.136,24.136
	l30.981-30.981l8.78,35.12l33.114-8.277l-13.747-54.989l16.651-16.65l5.501,11.002l30.53-15.264l-10.59-21.18l37.246-37.246
	c4.2,2.353,8.697,4.23,13.419,5.572v52.662l-22.463,7.488l10.793,32.382l11.669-3.889v23.547l-48.604,29.161l17.563,29.269
	l31.041-18.625V512h34.133v-43.812l31.041,18.625l17.563-29.269l-48.604-29.162v-23.547l11.67,3.89l10.793-32.382l-22.463-7.488
	v-52.662c4.722-1.341,9.221-3.219,13.419-5.572l37.246,37.246l-10.59,21.18l30.53,15.264l5.501-11.002l16.651,16.65l-13.747,54.989
	l33.114,8.277l8.78-35.12l30.981,30.981l24.136-24.136l-30.981-30.981l35.12-8.779l-8.277-33.114l-54.989,13.748l-16.65-16.65
	l11.002-5.501l-15.264-30.53l-21.18,10.589l-37.246-37.246c2.353-4.2,4.23-8.696,5.572-13.419h52.661l7.488,22.464l32.382-10.794
	l-3.89-11.67h23.546l29.162,48.602l29.269-17.562l-18.627-31.041H512V238.933z M284.444,256c0,15.684-12.76,28.444-28.444,28.444
	s-28.444-12.76-28.444-28.444s12.76-28.444,28.444-28.444S284.444,240.316,284.444,256z"/>
<path style="fill:#AED5F3;" d="M512,238.933h-43.814l18.625-31.042l-29.269-17.562l-29.161,48.604h-23.546l3.89-11.669
	l-32.382-10.794l-7.489,22.463h-52.661c-1.343-4.723-3.219-9.219-5.572-13.419l37.246-37.246l21.18,10.589l15.264-30.53
	l-11.002-5.501l16.65-16.65l54.989,13.748l8.277-33.114l-35.12-8.779l30.981-30.981l-24.136-24.136L393.97,93.895l-8.78-35.12
	l-33.114,8.277l13.747,54.989l-16.651,16.65l-5.501-11.002l-30.53,15.264l10.59,21.18l-37.246,37.246
	c-4.198-2.353-8.697-4.23-13.419-5.571v-52.662l22.463-7.488l-10.793-32.382l-11.669,3.888V83.619l48.604-29.161l-17.563-29.269
	l-31.041,18.624V0H256v227.556c15.684,0,28.444,12.76,28.444,28.444s-12.76,28.444-28.444,28.444V512h17.067v-43.812l31.041,18.625
	l17.563-29.269l-48.604-29.162v-23.547l11.67,3.89l10.793-32.382l-22.463-7.488v-52.662c4.722-1.341,9.221-3.219,13.419-5.572
	l37.246,37.246l-10.59,21.18l30.53,15.264l5.501-11.002l16.651,16.65l-13.747,54.989l33.114,8.277l8.78-35.12l30.981,30.981
	l24.136-24.136l-30.981-30.981l35.12-8.779l-8.277-33.114l-54.989,13.748l-16.65-16.65l11.002-5.501l-15.264-30.53l-21.18,10.589
	l-37.246-37.246c2.353-4.2,4.23-8.696,5.572-13.419h52.661l7.488,22.464l32.382-10.794l-3.89-11.67h23.546l29.162,48.602
	l29.269-17.562l-18.627-31.041H512V238.933z"/>
<g>
</g>
<g>
</g>
<g>
</g>
<g>
</g>
<g>
</g>
<g>
</g>
<g>
</g>
<g>
</g>
<g>
</g>
<g>
</g>
<g>
</g>
<g>
</g>
<g>
</g>
<g>
</g>
<g>
</g>
</svg>
