<?xml version="1.0" encoding="iso-8859-1"?>
<!-- Generator: Adobe Illustrator 19.0.0, SVG Export Plug-In . SVG Version: 6.00 Build 0)  -->
<svg version="1.1" id="Layer_1" xmlns="http://www.w3.org/2000/svg" xmlns:xlink="http://www.w3.org/1999/xlink" x="0px" y="0px"
	 viewBox="0 0 512 512" style="enable-background:new 0 0 512 512;" xml:space="preserve">
<path style="fill:#C9E3F7;" d="M477.867,210.489v28.444h-44.131l16.377-16.377l-24.136-24.136l-40.513,40.513h-54.128l-9.998-9.998
	v-14.138l38.275-38.275h57.293v-34.133h-23.159l31.205-31.205l20.114,20.114l24.136-24.136L404.838,42.8l-24.136,24.136
	l20.114,20.114l-31.205,31.205V95.094h-34.133v57.293l-38.275,38.275h-14.138l-9.999-9.998v-54.127l40.512-40.513l-24.136-24.136
	l-16.376,16.376V34.133h28.444V0h-91.022v34.133h28.444v44.131l-16.377-16.377L198.42,86.023l40.513,40.513v54.127l-9.998,9.998
	h-14.138l-38.275-38.275V95.094h-34.133v23.159l-31.205-31.205l20.114-20.114L107.163,42.8L42.8,107.163l24.136,24.136
	l20.114-20.114l31.205,31.205H95.094v34.133h57.293l38.275,38.275v14.138l-9.998,9.998h-54.127l-40.513-40.512l-24.136,24.136
	l16.376,16.376H34.133v-28.444H0v91.022h34.133v-28.444h44.131l-16.377,16.377l24.136,24.136l40.513-40.513h54.127l9.998,9.998
	v14.138l-38.275,38.275H95.094v34.133h23.159l-31.205,31.205l-20.114-20.113L42.8,404.838l64.363,64.363l24.136-24.136
	l-20.114-20.114l31.205-31.205v23.159h34.133v-57.293l38.275-38.275h14.138l9.998,9.998v54.128l-40.512,40.513l24.136,24.136
	l16.376-16.377v44.131h-28.444V512h91.022v-34.133h-28.444v-44.131l16.377,16.377l24.136-24.136l-40.513-40.513v-54.128l9.998-9.998
	h14.138l38.275,38.275v57.293h34.133v-23.159l31.205,31.205l-20.114,20.114l24.136,24.136l64.363-64.363l-24.136-24.136
	l-20.114,20.114l-31.205-31.205h23.159v-34.133h-57.293l-38.275-38.275v-14.138l9.998-9.998h54.128l40.513,40.512l24.136-24.136
	l-16.376-16.377h44.131v28.444H512v-91.022H477.867z M287.205,268.925v18.28h-18.28L256,300.131l-12.925-12.925h-18.28v-18.281
	L211.869,256l12.925-12.925v-18.28h18.28l12.925-12.925l12.925,12.925h18.28v18.28L300.129,256L287.205,268.925z"/>
<polygon style="fill:#AED5F3;" points="477.867,210.489 477.867,238.933 433.736,238.933 450.112,222.556 425.977,198.422 
	385.464,238.933 331.336,238.933 321.338,228.936 321.338,214.798 359.613,176.523 416.906,176.523 416.906,142.389 
	393.746,142.389 424.951,111.185 445.065,131.297 469.2,107.163 404.837,42.8 380.703,66.935 400.815,87.049 369.611,118.254 
	369.611,95.094 335.477,95.094 335.477,152.387 297.202,190.662 283.064,190.662 273.067,180.664 273.067,126.536 313.578,86.023 
	289.444,61.888 273.067,78.264 273.067,34.133 301.511,34.133 301.511,0 256,0 256,211.869 268.925,224.795 287.205,224.795 
	287.205,243.075 300.131,256 287.205,268.925 287.205,287.205 268.925,287.205 256,300.131 256,512 301.511,512 301.511,477.867 
	273.067,477.867 273.067,433.736 289.444,450.112 313.578,425.977 273.067,385.464 273.067,331.336 283.064,321.338 
	297.202,321.338 335.477,359.613 335.477,416.906 369.611,416.906 369.611,393.746 400.815,424.951 380.703,445.065 404.837,469.2 
	469.2,404.837 445.065,380.703 424.951,400.815 393.746,369.611 416.906,369.611 416.906,335.477 359.613,335.477 321.338,297.202 
	321.338,283.064 331.336,273.067 385.464,273.067 425.977,313.578 450.112,289.444 433.736,273.067 477.867,273.067 
	477.867,301.511 512,301.511 512,210.489 "/>
<g>
</g>
<g>
</g>
<g>
</g>
<g>
</g>
<g>
</g>
<g>
</g>
<g>
</g>
<g>
</g>
<g>
</g>
<g>
</g>
<g>
</g>
<g>
</g>
<g>
</g>
<g>
</g>
<g>
</g>
</svg>
