<?xml version="1.0" encoding="iso-8859-1"?>
<!-- Generator: Adobe Illustrator 19.0.0, SVG Export Plug-In . SVG Version: 6.00 Build 0)  -->
<svg version="1.1" id="Layer_1" xmlns="http://www.w3.org/2000/svg" xmlns:xlink="http://www.w3.org/1999/xlink" x="0px" y="0px"
	 viewBox="0 0 512 512" style="enable-background:new 0 0 512 512;" xml:space="preserve">
<g>
	<path style="fill:#C9E3F7;" d="M460.8,204.8c-22.249,0-41.219,14.27-48.265,34.133h-14.313v-17.067h-34.133v17.067h-47.896
		c-1.343-4.723-3.219-9.219-5.572-13.419l33.876-33.877l12.068,12.068l24.136-24.136l-12.068-12.068l10.1-10.099
		c6.807,3.259,14.311,4.982,22.082,4.982c13.676,0,26.533-5.326,36.203-14.996c9.671-9.671,14.997-22.528,14.997-36.204
		s-5.327-26.533-14.997-36.203c-9.67-9.671-22.528-14.997-36.203-14.997c-13.677,0-26.534,5.326-36.203,14.996
		c-9.67,9.671-14.997,22.528-14.997,36.204c0,7.771,1.724,15.275,4.982,22.082l-10.1,10.099l-12.067-12.068l-24.136,24.136
		l12.067,12.068l-33.876,33.877c-4.198-2.353-8.697-4.23-13.419-5.572v-47.896h17.067v-34.133h-17.067V99.465
		C292.931,92.419,307.2,73.449,307.2,51.2C307.2,22.968,284.232,0,256,0s-51.2,22.968-51.2,51.2
		c0,22.249,14.27,41.219,34.133,48.265v14.313h-17.067v34.133h17.067v47.896c-4.723,1.341-9.219,3.219-13.419,5.572l-33.877-33.877
		l12.068-12.068l-24.136-24.136l-12.068,12.068l-10.099-10.099c3.259-6.807,4.982-14.312,4.982-22.082
		c0-13.676-5.326-26.533-14.996-36.203c-9.671-9.671-22.528-14.997-36.204-14.997s-26.533,5.326-36.203,14.996
		c-9.671,9.671-14.997,22.528-14.997,36.204s5.326,26.533,14.996,36.204c9.671,9.671,22.528,14.996,36.204,14.996
		c7.771,0,15.275-1.724,22.082-4.982l10.099,10.099l-12.068,12.068l24.136,24.136l12.068-12.068l33.877,33.877
		c-2.353,4.2-4.23,8.696-5.572,13.419h-47.896v-17.067h-34.133v17.067H99.465C92.419,219.07,73.449,204.8,51.2,204.8
		C22.968,204.8,0,227.768,0,256s22.968,51.2,51.2,51.2c22.249,0,41.219-14.27,48.265-34.133h14.313v17.067h34.133v-17.067h47.896
		c1.341,4.723,3.219,9.219,5.572,13.419l-33.877,33.877l-12.068-12.068l-24.136,24.136l12.068,12.068l-10.099,10.099
		c-6.807-3.259-14.312-4.982-22.082-4.982c-13.676,0-26.533,5.326-36.203,14.996c-9.671,9.671-14.997,22.528-14.997,36.204
		s5.326,26.533,14.996,36.203c9.671,9.671,22.528,14.997,36.204,14.997s26.533-5.326,36.204-14.996
		c9.671-9.671,14.996-22.528,14.996-36.204c0-7.771-1.724-15.275-4.982-22.082l10.099-10.099l12.068,12.068l24.136-24.136
		l-12.068-12.068l33.877-33.877c4.2,2.353,8.696,4.23,13.419,5.572v47.896h-17.067v34.133h17.067v14.313
		C219.07,419.581,204.8,438.551,204.8,460.8c0,28.232,22.968,51.2,51.2,51.2s51.2-22.968,51.2-51.2
		c0-22.249-14.269-41.219-34.133-48.265v-14.313h17.067v-34.133h-17.067v-47.896c4.722-1.341,9.221-3.219,13.419-5.572
		l33.876,33.877l-12.067,12.068l24.136,24.136l12.067-12.068l10.1,10.1c-3.259,6.807-4.982,14.311-4.982,22.082
		c0,13.676,5.327,26.533,14.996,36.203c9.67,9.671,22.528,14.997,36.204,14.997c13.676,0,26.533-5.326,36.203-14.996
		c9.67-9.671,14.997-22.528,14.997-36.204c0-13.676-5.326-26.533-14.997-36.204c-9.67-9.671-22.528-14.996-36.203-14.996
		c-7.771,0-15.276,1.724-22.082,4.982l-10.1-10.099l12.068-12.068l-24.136-24.136l-12.068,12.068l-33.876-33.877
		c2.353-4.2,4.23-8.696,5.572-13.419h47.896v17.067h34.133v-17.067h14.313c7.045,19.863,26.015,34.133,48.265,34.133
		c28.232,0,51.2-22.968,51.2-51.2C512,227.769,489.032,204.8,460.8,204.8z M400.815,128.251c-4.559,0-8.844-1.775-12.067-4.998
		c-3.223-3.223-4.999-7.509-4.999-12.068c0-4.558,1.776-8.844,5.001-12.068c3.222-3.223,7.508-4.998,12.066-4.998
		s8.844,1.776,12.067,4.999c3.223,3.223,4.999,7.509,4.999,12.067c0,4.559-1.776,8.844-4.999,12.068
		C409.66,126.477,405.373,128.251,400.815,128.251z M256,34.133c9.411,0,17.067,7.656,17.067,17.067S265.411,68.267,256,68.267
		s-17.067-7.656-17.067-17.067S246.589,34.133,256,34.133z M99.116,123.253c-3.223-3.223-4.999-7.509-4.999-12.068
		c0-4.558,1.776-8.844,4.999-12.067c3.223-3.223,7.509-4.999,12.067-4.999c4.559,0,8.844,1.776,12.068,4.999l0,0
		c3.223,3.223,4.998,7.509,4.998,12.067c0,4.559-1.775,8.844-4.998,12.068c-3.223,3.223-7.509,4.998-12.068,4.998
		C106.626,128.251,102.341,126.477,99.116,123.253z M68.267,256c0,9.411-7.656,17.067-17.067,17.067S34.133,265.411,34.133,256
		s7.656-17.067,17.067-17.067S68.267,246.589,68.267,256z M111.185,417.882c-4.558,0-8.844-1.776-12.067-4.999
		c-3.223-3.223-4.999-7.509-4.999-12.067c0-4.559,1.776-8.844,4.999-12.068l0,0c3.223-3.223,7.509-4.998,12.067-4.998
		c4.559,0,8.844,1.775,12.068,4.998c3.223,3.223,4.998,7.509,4.998,12.068c0,4.558-1.775,8.844-4.998,12.067
		C120.029,416.107,115.744,417.882,111.185,417.882z M256,477.867c-9.411,0-17.067-7.656-17.067-17.067s7.656-17.067,17.067-17.067
		s17.067,7.656,17.067,17.067S265.411,477.867,256,477.867z M412.884,388.747c3.223,3.223,4.999,7.509,4.999,12.068
		c0,4.558-1.776,8.844-4.999,12.067c-3.223,3.223-7.51,4.999-12.067,4.999c-4.559,0-8.844-1.776-12.066-4.998l-0.001-0.001
		c-3.223-3.223-4.999-7.509-4.999-12.067c0-4.559,1.776-8.844,5.001-12.068c3.222-3.223,7.508-4.998,12.066-4.998
		C405.373,383.749,409.66,385.523,412.884,388.747z M284.444,256c0,15.684-12.76,28.444-28.444,28.444s-28.444-12.76-28.444-28.444
		s12.76-28.444,28.444-28.444S284.444,240.316,284.444,256z M477.867,256c0,9.411-7.656,17.067-17.067,17.067
		s-17.067-7.656-17.067-17.067s7.656-17.067,17.067-17.067S477.867,246.589,477.867,256z"/>
</g>
<path style="fill:#AED5F3;" d="M460.8,204.8c-22.249,0-41.219,14.27-48.265,34.133h-14.313v-17.067h-34.133v17.067h-47.896
	c-1.343-4.723-3.219-9.219-5.572-13.419l33.876-33.877l12.068,12.068l24.136-24.136l-12.068-12.068l10.1-10.099
	c6.807,3.259,14.311,4.982,22.082,4.982c13.676,0,26.533-5.326,36.203-14.996c9.671-9.671,14.997-22.528,14.997-36.204
	s-5.327-26.533-14.997-36.203c-9.67-9.671-22.528-14.997-36.203-14.997c-13.677,0-26.534,5.326-36.203,14.996
	c-9.67,9.671-14.997,22.528-14.997,36.204c0,7.771,1.724,15.275,4.982,22.082l-10.1,10.099l-12.067-12.068l-24.136,24.136
	l12.067,12.068l-33.876,33.877c-4.198-2.353-8.697-4.23-13.419-5.572v-47.896h17.067v-34.133h-17.067V99.465
	C292.931,92.419,307.2,73.449,307.2,51.2C307.2,22.968,284.232,0,256,0v34.133c9.411,0,17.067,7.656,17.067,17.067
	S265.41,68.267,256,68.267v159.289c15.684,0,28.444,12.76,28.444,28.444s-12.76,28.444-28.444,28.444v159.289
	c9.411,0,17.067,7.656,17.067,17.067S265.41,477.867,256,477.867V512c28.232,0,51.2-22.968,51.2-51.2
	c0-22.249-14.269-41.219-34.133-48.265v-14.313h17.067v-34.133h-17.067v-47.896c4.722-1.341,9.221-3.219,13.419-5.572l33.876,33.877
	l-12.067,12.068l24.136,24.136l12.067-12.068l10.1,10.1c-3.259,6.807-4.982,14.311-4.982,22.082
	c0,13.676,5.327,26.533,14.996,36.203c9.67,9.671,22.528,14.997,36.204,14.997c13.676,0,26.533-5.326,36.203-14.996
	c9.67-9.671,14.997-22.528,14.997-36.204c0-13.676-5.326-26.533-14.997-36.204c-9.67-9.671-22.528-14.996-36.203-14.996
	c-7.771,0-15.276,1.724-22.082,4.982l-10.1-10.099l12.068-12.068l-24.136-24.136l-12.068,12.068l-33.876-33.877
	c2.353-4.2,4.23-8.696,5.572-13.419h47.896v17.067h34.133v-17.067h14.313c7.045,19.863,26.015,34.133,48.265,34.133
	c28.232,0,51.2-22.968,51.2-51.2C512,227.769,489.032,204.8,460.8,204.8z M388.749,99.116c3.222-3.223,7.508-4.998,12.066-4.998
	s8.844,1.776,12.067,4.999c3.223,3.223,4.999,7.509,4.999,12.067c0,4.559-1.776,8.844-4.999,12.068
	c-3.223,3.223-7.51,4.998-12.067,4.998c-4.559,0-8.844-1.775-12.067-4.998c-3.223-3.223-4.999-7.509-4.999-12.068
	C383.749,106.626,385.525,102.341,388.749,99.116z M388.749,388.747c3.222-3.223,7.508-4.998,12.066-4.998s8.844,1.775,12.067,4.998
	c3.223,3.223,4.999,7.509,4.999,12.068c0,4.558-1.776,8.844-4.999,12.067c-3.223,3.223-7.51,4.999-12.067,4.999
	c-4.559,0-8.844-1.776-12.066-4.998l-0.001-0.001c-3.223-3.223-4.999-7.509-4.999-12.067
	C383.749,396.256,385.525,391.971,388.749,388.747z M460.8,273.067c-9.411,0-17.067-7.656-17.067-17.067s7.656-17.067,17.067-17.067
	s17.067,7.656,17.067,17.067S470.211,273.067,460.8,273.067z"/>
<g>
</g>
<g>
</g>
<g>
</g>
<g>
</g>
<g>
</g>
<g>
</g>
<g>
</g>
<g>
</g>
<g>
</g>
<g>
</g>
<g>
</g>
<g>
</g>
<g>
</g>
<g>
</g>
<g>
</g>
</svg>
