<?xml version="1.0" encoding="iso-8859-1"?>
<!-- Generator: Adobe Illustrator 19.0.0, SVG Export Plug-In . SVG Version: 6.00 Build 0)  -->
<svg version="1.1" id="Layer_1" xmlns="http://www.w3.org/2000/svg" xmlns:xlink="http://www.w3.org/1999/xlink" x="0px" y="0px"
	 viewBox="0 0 512 512" style="enable-background:new 0 0 512 512;" xml:space="preserve">
<path style="fill:#C9E3F7;" d="M487.893,309.462l-71.826,19.247l-22.653-13.079l77.68-44.849v-29.559l-77.68-44.849l22.653-13.079
	l71.826,19.247l8.835-32.971l-38.856-10.412l28.366-16.377l-17.067-29.559l-28.365,16.377l10.412-38.856l-32.971-8.835L399,153.733
	l-22.653,13.079V77.114l-25.6-14.78l-77.681,44.848V81.025l52.58-52.58L301.511,4.309l-28.444,28.444V0h-34.133v32.753
	L210.489,4.309l-24.136,24.136l52.58,52.58v26.158l-77.68-44.848l-25.6,14.78v89.697l-22.653-13.079L93.754,81.906l-32.971,8.835
	l10.411,38.856L42.832,113.22L25.765,142.78l28.366,16.377l-38.856,10.412l8.835,32.971l71.826-19.247l22.653,13.079L40.907,241.22
	v29.559l77.68,44.849l-22.653,13.079l-71.826-19.247l-8.835,32.971l38.856,10.412L25.765,369.22l17.067,29.559l28.365-16.377
	l-10.411,38.856l32.971,8.835l19.247-71.826l22.653-13.079v89.697l25.6,14.78l77.677-44.848v26.158l-52.58,52.58l24.136,24.136
	l28.444-28.444V512h34.133v-32.753l28.444,28.444l24.136-24.136l-52.58-52.58v-26.158l77.68,44.848l25.6-14.78v-89.697
	l22.653,13.079l19.247,71.826l32.971-8.835l-10.412-38.856l28.365,16.377l17.067-29.559l-28.366-16.377l38.856-10.412
	L487.893,309.462z M210.748,282.126v-52.252L256,203.748l45.252,26.127v52.252L256,308.252L210.748,282.126z M428.427,256
	l-69.146,39.922l-23.894-13.796v-52.254l23.894-13.796L428.427,256z M342.213,106.673v79.844l-23.894,13.796l-45.252-26.126v-27.591
	L342.213,106.673z M169.787,106.673l69.146,39.922v27.591l-45.252,26.126l-23.894-13.796L169.787,106.673L169.787,106.673z
	 M83.573,256l69.146-39.922l23.894,13.796v52.254l-23.894,13.796L83.573,256z M169.787,405.327v-79.844l23.894-13.796l45.252,26.126
	v27.591L169.787,405.327z M342.213,405.327l-69.146-39.922v-27.591l45.252-26.126l23.894,13.796V405.327z"/>
<path style="fill:#AED5F3;" d="M487.893,309.462l-71.826,19.247l-22.653-13.079l77.68-44.849v-29.559l-77.68-44.849l22.653-13.079
	l71.826,19.247l8.835-32.971l-38.856-10.412l28.366-16.377l-17.067-29.559l-28.365,16.377l10.412-38.856l-32.971-8.835L399,153.733
	l-22.653,13.079V77.114l-25.6-14.78l-77.681,44.848V81.025l52.58-52.58L301.511,4.309l-28.444,28.444V0H256v203.748l45.252,26.127
	v52.252L256,308.252V512h17.067v-32.753l28.444,28.444l24.136-24.136l-52.58-52.58v-26.158l77.68,44.848l25.6-14.78v-89.697
	l22.653,13.079l19.247,71.826l32.971-8.835l-10.412-38.856l28.365,16.377l17.067-29.559l-28.366-16.377l38.856-10.412
	L487.893,309.462z M273.067,174.187v-27.591l69.146-39.921v79.844l-23.894,13.796L273.067,174.187z M342.213,405.327l-69.146-39.922
	v-27.592l45.252-26.126l23.894,13.796V405.327z M359.28,295.922l-23.894-13.796v-52.254l23.894-13.796L428.427,256L359.28,295.922z"
	/>
<g>
</g>
<g>
</g>
<g>
</g>
<g>
</g>
<g>
</g>
<g>
</g>
<g>
</g>
<g>
</g>
<g>
</g>
<g>
</g>
<g>
</g>
<g>
</g>
<g>
</g>
<g>
</g>
<g>
</g>
</svg>
