<?xml version="1.0" encoding="iso-8859-1"?>
<!-- Generator: Adobe Illustrator 19.0.0, SVG Export Plug-In . SVG Version: 6.00 Build 0)  -->
<svg version="1.1" id="Layer_1" xmlns="http://www.w3.org/2000/svg" xmlns:xlink="http://www.w3.org/1999/xlink" x="0px" y="0px"
	 viewBox="0 0 512 512" style="enable-background:new 0 0 512 512;" xml:space="preserve">
<path style="fill:#C9E3F7;" d="M382.999,310.146l-27.35-15.791l47.27-27.291c3.829,6.618,10.967,11.081,19.162,11.081
	c12.23,0,22.144-9.914,22.144-22.144c0-12.23-9.914-22.144-22.144-22.144c-8.194,0-15.334,4.463-19.162,11.081l-47.27-27.291
	l27.35-15.791l69.897,18.729l24.807-92.583l-92.582-24.808l-18.729,69.897l-27.35,15.791v-54.582
	c7.645-0.008,15.079-3.958,19.177-11.055c6.115-10.591,2.487-24.135-8.105-30.25c-10.591-6.114-24.135-2.486-30.249,8.106
	c-4.098,7.097-3.802,15.511,0.016,22.136l-47.27,27.29v-31.582l51.167-51.167L256,0l-67.775,67.775l51.167,51.167v31.582
	l-47.27-27.29c3.817-6.624,4.112-15.039,0.014-22.136c-6.114-10.591-19.657-14.22-30.249-8.106
	c-10.591,6.115-14.22,19.658-8.106,30.25c4.098,7.097,11.533,11.048,19.178,11.055v54.582l-27.351-15.791l-18.728-69.895L34.297,128
	l24.808,92.583l69.895-18.729l27.35,15.791l-47.27,27.291c-3.829-6.618-10.968-11.081-19.162-11.081
	c-12.23,0-22.144,9.914-22.144,22.144s9.914,22.144,22.144,22.144c8.194,0,15.334-4.463,19.162-11.081l47.27,27.291l-27.35,15.791
	l-69.895-18.729L34.298,384l92.583,24.808l18.728-69.895l27.351-15.791v54.582c-7.645,0.008-15.08,3.958-19.178,11.055
	c-6.114,10.591-2.486,24.134,8.106,30.25c10.591,6.114,24.135,2.486,30.249-8.106c4.098-7.097,3.802-15.511-0.014-22.136
	l47.27-27.29v31.581l-51.168,51.167L256,511.999l67.775-67.775l-51.167-51.167v-31.582l47.27,27.29
	c-3.817,6.624-4.113,15.039-0.016,22.136c6.114,10.591,19.657,14.22,30.249,8.106c10.591-6.115,14.221-19.658,8.105-30.25
	c-4.098-7.097-11.532-11.048-19.177-11.055V323.12l27.35,15.791l18.729,69.897L477.701,384l-24.807-92.583L382.999,310.146z
	 M400.993,339.712l28.415-7.613l7.613,28.415l-28.414,7.613L400.993,339.712z M355.648,255.999l-33.216,19.177l-33.216-19.177
	l33.216-19.177L355.648,255.999z M408.607,143.873l28.414,7.613l-7.613,28.415l-28.415-7.613L408.607,143.873z M305.824,169.702
	v38.356l-33.216,19.177v-38.356L305.824,169.702z M256,46.975l20.801,20.8L256,88.576l-20.801-20.801L256,46.975z M206.176,169.702
	l33.216,19.177v38.356l-33.216-19.178V169.702z M74.979,151.487l28.414-7.613l7.613,28.415l-28.414,7.613L74.979,151.487z
	 M156.352,255.999l33.216-19.178l33.216,19.178l-33.216,19.178L156.352,255.999z M103.393,368.126l-28.414-7.613l7.613-28.415
	l28.414,7.613L103.393,368.126z M206.176,342.298v-38.355l33.216-19.178v38.356L206.176,342.298z M256,465.025l-20.801-20.801
	L256,423.423l20.801,20.801L256,465.025z M305.824,342.298l-33.216-19.177v-38.356l33.216,19.177V342.298z"/>
<path style="fill:#AED5F3;" d="M382.999,310.146l-27.35-15.791l47.27-27.291c3.829,6.618,10.967,11.081,19.162,11.081
	c12.23,0,22.144-9.914,22.144-22.144c0-12.23-9.914-22.144-22.144-22.144c-8.194,0-15.334,4.463-19.162,11.081l-47.27-27.291
	l27.35-15.791l69.897,18.729l24.807-92.583l-92.582-24.808l-18.729,69.897l-27.35,15.791v-54.582
	c7.645-0.008,15.079-3.958,19.177-11.055c6.115-10.591,2.487-24.135-8.105-30.25c-10.591-6.114-24.135-2.486-30.249,8.106
	c-4.098,7.097-3.802,15.511,0.016,22.136l-47.27,27.29v-31.582l51.167-51.167L256,0v46.975l20.801,20.8L256,88.576v334.848
	l20.801,20.8L256,465.025V512l67.775-67.775l-51.167-51.168v-31.582l47.27,27.29c-3.817,6.624-4.113,15.039-0.016,22.136
	c6.114,10.591,19.657,14.22,30.249,8.106c10.591-6.115,14.221-19.658,8.105-30.25c-4.098-7.097-11.532-11.048-19.177-11.055V323.12
	l27.35,15.791l18.729,69.897L477.701,384l-24.807-92.583L382.999,310.146z M408.607,143.873l28.414,7.613l-7.613,28.415
	l-28.415-7.613L408.607,143.873z M272.608,188.879l33.216-19.177v38.356l-33.216,19.177V188.879L272.608,188.879z M305.824,342.298
	l-33.216-19.177v-38.356l33.216,19.177V342.298z M322.432,275.177l-33.216-19.177l33.216-19.177l33.216,19.177L322.432,275.177z
	 M408.607,368.126l-7.614-28.415l28.415-7.613l7.613,28.415L408.607,368.126z"/>
<g>
</g>
<g>
</g>
<g>
</g>
<g>
</g>
<g>
</g>
<g>
</g>
<g>
</g>
<g>
</g>
<g>
</g>
<g>
</g>
<g>
</g>
<g>
</g>
<g>
</g>
<g>
</g>
<g>
</g>
</svg>
