<?xml version="1.0" encoding="iso-8859-1"?>
<!-- Generator: Adobe Illustrator 19.0.0, SVG Export Plug-In . SVG Version: 6.00 Build 0)  -->
<svg version="1.1" id="Layer_1" xmlns="http://www.w3.org/2000/svg" xmlns:xlink="http://www.w3.org/1999/xlink" x="0px" y="0px"
	 viewBox="0 0 512 512" style="enable-background:new 0 0 512 512;" xml:space="preserve">
<path style="fill:#C9E3F7;" d="M460.8,204.8c-22.249,0-41.219,14.27-48.265,34.133h-36.71l43.401-50.544l-66.429-5.052
	l25.937-25.936c6.807,3.259,14.311,4.982,22.082,4.982c13.676,0,26.533-5.326,36.203-14.996
	c9.671-9.671,14.997-22.528,14.997-36.204s-5.327-26.533-14.997-36.203c-9.67-9.671-22.528-14.997-36.203-14.997
	c-13.677,0-26.534,5.326-36.203,14.996c-9.67,9.671-14.997,22.528-14.997,36.204c0,7.771,1.725,15.275,4.982,22.082l-25.936,25.936
	l-5.052-66.427l-50.543,43.399v-36.71C292.931,92.419,307.2,73.449,307.2,51.2C307.2,22.968,284.232,0,256,0s-51.2,22.968-51.2,51.2
	c0,22.249,14.269,41.219,34.133,48.265v36.71L188.39,92.776l-5.052,66.427l-25.936-25.936c3.257-6.807,4.982-14.311,4.982-22.082
	c0-13.676-5.327-26.533-14.996-36.203c-9.67-9.671-22.528-14.997-36.204-14.997s-26.533,5.326-36.203,14.996
	c-9.67,9.671-14.997,22.528-14.997,36.204s5.326,26.533,14.997,36.204c9.67,9.671,22.528,14.996,36.203,14.996
	c7.771,0,15.276-1.724,22.082-4.982l25.936,25.936l-66.428,5.052l43.401,50.544h-36.71C92.419,219.07,73.449,204.8,51.2,204.8
	C22.968,204.8,0,227.768,0,256s22.968,51.2,51.2,51.2c22.249,0,41.219-14.27,48.265-34.133h36.71L92.774,323.61l66.428,5.052
	l-25.936,25.936c-6.807-3.259-14.311-4.982-22.082-4.982c-13.676,0-26.533,5.326-36.203,14.996
	c-9.671,9.671-14.997,22.528-14.997,36.204s5.327,26.533,14.997,36.203c9.67,9.671,22.528,14.997,36.203,14.997
	c13.677,0,26.534-5.326,36.203-14.996c9.67-9.671,14.997-22.528,14.997-36.204c0-7.771-1.725-15.275-4.982-22.082l25.936-25.936
	l5.052,66.427l50.544-43.399v36.71c-19.864,7.045-34.133,26.015-34.133,48.265c0,28.232,22.968,51.2,51.2,51.2
	s51.2-22.968,51.2-51.2c0-22.249-14.269-41.219-34.133-48.265v-36.71l50.543,43.399l5.052-66.427l25.936,25.937
	c-3.257,6.807-4.982,14.311-4.982,22.082c0,13.676,5.327,26.533,14.996,36.203c9.67,9.671,22.528,14.997,36.204,14.997
	c13.676,0,26.533-5.326,36.203-14.996c9.67-9.671,14.997-22.528,14.997-36.204c0-13.676-5.326-26.533-14.997-36.204
	c-9.67-9.671-22.528-14.996-36.203-14.996c-7.771,0-15.276,1.724-22.082,4.982l-25.937-25.936l66.429-5.052l-43.401-50.545h36.71
	c7.045,19.863,26.015,34.133,48.265,34.133c28.232,0,51.2-22.968,51.2-51.2S489.032,204.8,460.8,204.8z M477.867,256
	c0,9.411-7.656,17.067-17.067,17.067s-17.067-7.656-17.067-17.067s7.656-17.067,17.067-17.067S477.867,246.589,477.867,256z
	 M349.401,217.312l-18.565,21.621h-33.635l23.782-23.782L349.401,217.312z M400.815,128.251c-4.559,0-8.844-1.775-12.067-4.998
	c-3.223-3.223-4.999-7.509-4.999-12.068c0-4.558,1.776-8.844,5.001-12.068c3.222-3.223,7.508-4.998,12.066-4.998
	s8.844,1.776,12.067,4.999c3.223,3.223,4.999,7.509,4.999,12.067c0,4.559-1.776,8.844-4.999,12.068
	C409.66,126.477,405.373,128.251,400.815,128.251z M294.688,162.599l2.161,28.417l-23.782,23.782v-33.634L294.688,162.599z
	 M256,34.133c9.411,0,17.067,7.656,17.067,17.067S265.411,68.267,256,68.267s-17.067-7.656-17.067-17.067S246.589,34.133,256,34.133
	z M217.312,162.599l21.621,18.566v33.634l-23.782-23.782L217.312,162.599z M99.116,123.253c-3.223-3.223-4.999-7.509-4.999-12.068
	c0-4.558,1.776-8.844,4.999-12.067c3.223-3.223,7.51-4.999,12.067-4.999c4.559,0,8.844,1.776,12.066,4.998l0.001,0.001
	c3.223,3.223,4.999,7.509,4.999,12.067c0,4.559-1.776,8.844-5.001,12.068c-3.222,3.223-7.508,4.998-12.066,4.998
	C106.627,128.251,102.34,126.477,99.116,123.253z M162.599,217.312l28.417-2.161l23.782,23.782h-33.635L162.599,217.312z
	 M68.267,256c0,9.411-7.656,17.067-17.067,17.067S34.133,265.411,34.133,256s7.656-17.067,17.067-17.067S68.267,246.589,68.267,256z
	 M162.599,294.688l18.565-21.621h33.635l-23.782,23.782L162.599,294.688z M111.185,383.749c4.559,0,8.844,1.775,12.067,4.998
	c3.223,3.223,4.999,7.509,4.999,12.068c0,4.558-1.776,8.844-5.001,12.068c-3.222,3.223-7.508,4.998-12.066,4.998
	c-4.558,0-8.844-1.776-12.067-4.999c-3.223-3.223-4.999-7.509-4.999-12.067c0-4.559,1.776-8.844,4.999-12.068
	C102.34,385.523,106.627,383.749,111.185,383.749z M217.312,349.401l-2.161-28.417l23.782-23.782v33.634L217.312,349.401z
	 M256,477.867c-9.411,0-17.067-7.656-17.067-17.067s7.656-17.067,17.067-17.067s17.067,7.656,17.067,17.067
	S265.411,477.867,256,477.867z M294.688,349.401l-21.621-18.566v-33.634l23.782,23.782L294.688,349.401z M412.884,388.747
	c3.223,3.223,4.999,7.509,4.999,12.068c0,4.558-1.776,8.844-4.999,12.067c-3.223,3.223-7.51,4.999-12.067,4.999
	c-4.559,0-8.844-1.776-12.066-4.998l-0.001-0.001c-3.223-3.223-4.999-7.509-4.999-12.067c0-4.559,1.776-8.844,5.001-12.068
	c3.222-3.223,7.508-4.998,12.066-4.998C405.373,383.749,409.66,385.523,412.884,388.747z M349.401,294.688l-28.417,2.161
	l-23.782-23.782h33.635L349.401,294.688z"/>
<path style="fill:#AED5F3;" d="M460.8,204.8c-22.249,0-41.219,14.27-48.265,34.133h-36.71l43.401-50.544l-66.429-5.052
	l25.937-25.936c6.807,3.259,14.311,4.982,22.082,4.982c13.676,0,26.533-5.326,36.203-14.996
	c9.671-9.671,14.997-22.528,14.997-36.204s-5.327-26.533-14.997-36.203c-9.67-9.671-22.528-14.997-36.203-14.997
	c-13.677,0-26.534,5.326-36.203,14.996c-9.67,9.671-14.997,22.528-14.997,36.204c0,7.771,1.725,15.275,4.982,22.082l-25.936,25.936
	l-5.052-66.427l-50.543,43.399v-36.71C292.931,92.419,307.2,73.449,307.2,51.2C307.2,22.968,284.232,0,256,0v34.133
	c9.411,0,17.067,7.656,17.067,17.067S265.411,68.267,256,68.267v375.467c9.411,0,17.067,7.656,17.067,17.067
	s-7.656,17.067-17.067,17.067V512c28.232,0,51.2-22.968,51.2-51.2c0-22.249-14.269-41.219-34.133-48.265v-36.71l50.543,43.399
	l5.052-66.427l25.936,25.937c-3.257,6.807-4.982,14.311-4.982,22.082c0,13.676,5.327,26.533,14.996,36.203
	c9.67,9.671,22.528,14.997,36.204,14.997c13.676,0,26.533-5.326,36.203-14.996c9.67-9.671,14.997-22.528,14.997-36.204
	c0-13.676-5.326-26.533-14.997-36.204c-9.67-9.671-22.528-14.996-36.203-14.996c-7.771,0-15.276,1.724-22.082,4.982l-25.937-25.936
	l66.429-5.052l-43.401-50.545h36.71c7.045,19.863,26.015,34.133,48.265,34.133c28.232,0,51.2-22.968,51.2-51.2
	S489.032,204.8,460.8,204.8z M388.749,99.116c3.222-3.223,7.508-4.998,12.066-4.998s8.844,1.776,12.067,4.999
	c3.223,3.223,4.999,7.509,4.999,12.067c0,4.559-1.776,8.844-4.999,12.068c-3.223,3.223-7.51,4.998-12.067,4.998
	c-4.559,0-8.844-1.775-12.067-4.998c-3.223-3.223-4.999-7.509-4.999-12.068C383.749,106.626,385.525,102.341,388.749,99.116z
	 M388.749,388.747c3.222-3.223,7.508-4.998,12.066-4.998s8.844,1.775,12.067,4.998c3.223,3.223,4.999,7.509,4.999,12.068
	c0,4.558-1.776,8.844-4.999,12.067c-3.223,3.223-7.51,4.999-12.067,4.999c-4.559,0-8.844-1.776-12.066-4.998l-0.001-0.001
	c-3.223-3.223-4.999-7.509-4.999-12.067C383.749,396.256,385.525,391.971,388.749,388.747z M294.688,349.401l-21.621-18.566v-33.634
	l23.782,23.782L294.688,349.401z M273.067,214.798v-33.634l21.621-18.565l2.161,28.417L273.067,214.798z M320.984,296.849
	l-23.782-23.782h33.635l18.564,21.621L320.984,296.849z M330.836,238.933h-33.635l23.782-23.782l28.417,2.161L330.836,238.933z
	 M460.8,273.067c-9.411,0-17.067-7.656-17.067-17.067s7.656-17.067,17.067-17.067s17.067,7.656,17.067,17.067
	S470.211,273.067,460.8,273.067z"/>
<g>
</g>
<g>
</g>
<g>
</g>
<g>
</g>
<g>
</g>
<g>
</g>
<g>
</g>
<g>
</g>
<g>
</g>
<g>
</g>
<g>
</g>
<g>
</g>
<g>
</g>
<g>
</g>
<g>
</g>
</svg>
