<?xml version="1.0" encoding="iso-8859-1"?>
<!-- Generator: Adobe Illustrator 19.0.0, SVG Export Plug-In . SVG Version: 6.00 Build 0)  -->
<svg version="1.1" id="Layer_1" xmlns="http://www.w3.org/2000/svg" xmlns:xlink="http://www.w3.org/1999/xlink" x="0px" y="0px"
	 viewBox="0 0 512 512" style="enable-background:new 0 0 512 512;" xml:space="preserve">
<path style="fill:#C9E3F7;" d="M491.176,266.493l-75.971,62.501l-36.545-21.1l89.886-51.895l-89.886-51.895l36.545-21.1
	l75.971,62.501L512,220.195l-66.48-54.693l31.56-18.221l-16.388-28.384l-31.559,18.221l-14.125-84.92l-32.331,5.377l16.142,97.044
	l-36.545,21.1V71.929l-89.884,51.895V81.627l92.113-34.542l-11.509-30.689l-80.605,30.227V10.181h-32.776v36.441l-80.605-30.227
	L147.5,47.085l92.113,34.542v42.199l-89.884-51.895v103.79l-36.545-21.1l16.142-97.044L96.995,52.2l-14.126,84.919l-31.559-18.221
	l-16.388,28.384l31.56,18.221L0,220.196l20.824,25.311l75.971-62.501l36.544,21.1L43.454,256l89.884,51.895l-36.544,21.1
	l-75.971-62.502L0,291.803l66.48,54.693l-31.56,18.221l16.388,28.384l31.559-18.221l14.125,84.92l32.331-5.377l-16.142-97.044
	l36.545-21.1V440.07l89.884-51.896v42.199l-92.113,34.541l11.509,30.689l80.605-30.227v36.441h32.776v-36.441l80.605,30.227
	l11.509-30.689l-92.113-34.541v-42.199l89.884,51.896V336.279l36.545,21.1l-16.142,97.044l32.331,5.377l14.125-84.92l31.559,18.221
	l16.388-28.384l-31.56-18.221l66.48-54.693L491.176,266.493z M402.994,256l-57.109,32.973l-25.571-14.763L351.854,256
	l-31.539-18.209l25.571-14.763L402.994,256z M271.151,264.747v17.495L256,273.495l-15.151,8.747v-17.495L225.699,256l15.15-8.747
	v-17.495L256,238.505l15.151-8.747v17.495l15.15,8.747L271.151,264.747z M329.497,128.7v65.944l-25.571,14.763V172.99
	l-31.539,18.209v-29.527L329.497,128.7z M182.502,128.7l57.109,32.971v29.527l-31.539-18.209v36.417l-25.571-14.763V128.7H182.502z
	 M109.006,256l57.109-32.972l25.571,14.763L160.146,256l31.539,18.209l-25.571,14.763L109.006,256z M182.502,383.3v-65.944
	l25.571-14.763v36.417l31.539-18.208v29.526L182.502,383.3z M329.497,383.3l-57.109-32.971v-29.526l31.539,18.208v-36.417
	l25.571,14.763V383.3H329.497z"/>
<path style="fill:#AED5F3;" d="M491.176,266.493l-75.971,62.501l-36.545-21.1l89.886-51.895l-89.886-51.895l36.545-21.1
	l75.971,62.501L512,220.195l-66.48-54.693l31.56-18.221l-16.388-28.384l-31.559,18.221l-14.125-84.92l-32.331,5.377l16.142,97.044
	l-36.545,21.1V71.929l-89.884,51.895V81.627l92.113-34.542l-11.509-30.689l-80.605,30.227V10.181h-16.388v228.324l15.151-8.747
	v17.495l15.15,8.747l-15.15,8.747v17.495l-15.151-8.747v228.324h16.388v-36.441l80.605,30.227l11.509-30.689l-92.113-34.541v-42.199
	l89.884,51.896V336.28l36.545,21.1l-16.142,97.044l32.331,5.377l14.125-84.92l31.559,18.221l16.388-28.384l-31.56-18.221
	L512,291.804L491.176,266.493z M272.388,191.198v-29.527l57.109-32.971v65.944l-25.571,14.763V172.99L272.388,191.198z
	 M329.497,383.3l-57.109-32.971v-29.526l31.539,18.208v-36.417l25.571,14.763V383.3H329.497z M345.884,288.973l-25.571-14.763
	L351.853,256l-31.539-18.209l25.571-14.763L402.993,256L345.884,288.973z"/>
<g>
</g>
<g>
</g>
<g>
</g>
<g>
</g>
<g>
</g>
<g>
</g>
<g>
</g>
<g>
</g>
<g>
</g>
<g>
</g>
<g>
</g>
<g>
</g>
<g>
</g>
<g>
</g>
<g>
</g>
</svg>
