<?xml version="1.0" encoding="iso-8859-1"?>
<!-- Generator: Adobe Illustrator 19.0.0, SVG Export Plug-In . SVG Version: 6.00 Build 0)  -->
<svg version="1.1" id="Layer_1" xmlns="http://www.w3.org/2000/svg" xmlns:xlink="http://www.w3.org/1999/xlink" x="0px" y="0px"
	 viewBox="0 0 512 512" style="enable-background:new 0 0 512 512;" xml:space="preserve">
<path style="fill:#C9E3F7;" d="M455.698,350.672l-35.254-20.354l37.803-33.523l-23.7-26.726l-46.712,41.422l-29.885-17.253
	l39.438-22.77v-30.934l-39.438-22.77l29.885-17.253l46.712,41.422l23.7-26.726l-37.803-33.523l35.254-20.354l14.884,25.78
	l30.934-17.86l-47.628-82.494l-30.934,17.86l14.884,25.78l-35.254,20.354l-10.13-49.501l-34.996,7.162l12.517,61.166l-29.884,17.253
	v-45.542l-26.791-15.467l-39.438,22.77v-34.508l59.229-19.743l-11.295-33.888L273.86,76.429V35.721h29.767V0h-95.256v35.721h29.767
	v40.708l-47.934-15.977L178.911,94.34l59.229,19.743v34.508l-39.438-22.77l-26.791,15.467v45.539l-29.884-17.253l12.517-61.166
	l-34.996-7.162l-10.13,49.501l-35.254-20.354l14.884-25.78l-30.934-17.86l-47.628,82.494l30.934,17.86l14.884-25.78l35.254,20.354
	l-37.803,33.523l23.7,26.726l46.712-41.422l29.885,17.253l-39.437,22.771v30.934l39.438,22.77l-29.885,17.253l-46.712-41.422
	l-23.7,26.726l37.803,33.523l-35.255,20.355l-14.884-25.78l-30.934,17.86l47.628,82.494l30.934-17.86l-14.884-25.78l35.254-20.354
	l10.13,49.501l34.996-7.162l-12.517-61.166l29.884-17.253v45.539l26.791,15.467l39.438-22.77v34.508l-59.229,19.743l11.295,33.888
	l47.934-15.977v40.708h-29.767V512h95.256v-35.721H273.86v-40.708l47.934,15.978l11.295-33.888l-59.229-19.744v-34.508l39.438,22.77
	l26.791-15.467v-45.539l29.884,17.253l-12.517,61.166l34.996,7.162l10.13-49.501l35.254,20.354l-14.884,25.78l30.934,17.86
	l47.628-82.494l-30.934-17.86L455.698,350.672z M352.736,256l-30.507,17.614l-13.56-7.829c0.588-3.176,0.912-6.443,0.912-9.785
	c0-3.342-0.323-6.611-0.912-9.785l13.56-7.829L352.736,256z M273.86,256c0,9.848-8.012,17.86-17.86,17.86
	c-9.848,0-17.86-8.012-17.86-17.86c0-9.848,8.012-17.86,17.86-17.86C265.848,238.14,273.86,246.152,273.86,256z M304.368,172.224
	v35.228l-13.585,7.843c-4.946-4.234-10.667-7.585-16.923-9.803v-15.653L304.368,172.224z M207.631,172.224l30.508,17.614v15.653
	c-6.256,2.218-11.977,5.57-16.923,9.803l-13.585-7.843V172.224z M159.264,256l30.507-17.614l13.56,7.829
	c-0.589,3.174-0.912,6.442-0.912,9.785s0.323,6.611,0.912,9.785l-13.56,7.829L159.264,256z M207.631,339.776v-35.228l13.585-7.843
	c4.946,4.234,10.667,7.585,16.923,9.803v15.653L207.631,339.776z M304.368,339.776l-30.508-17.614v-15.653
	c6.256-2.218,11.977-5.57,16.923-9.803l13.585,7.843V339.776z"/>
<path style="fill:#AED5F3;" d="M455.698,350.672l-35.254-20.354l37.803-33.523l-23.7-26.726l-46.712,41.422l-29.885-17.253
	l39.438-22.77v-30.934l-39.438-22.77l29.885-17.253l46.712,41.422l23.7-26.726l-37.803-33.523l35.254-20.354l14.884,25.78
	l30.934-17.86l-47.628-82.494l-30.934,17.86l14.884,25.78l-35.254,20.354l-10.13-49.501l-34.996,7.162l12.517,61.166l-29.884,17.253
	v-45.542l-26.791-15.467l-39.438,22.77v-34.508l59.229-19.743l-11.295-33.888L273.86,76.429V35.721h29.767V0H256v238.14
	c9.848,0,17.86,8.012,17.86,17.86c0,9.848-8.012,17.86-17.86,17.86V512h47.628v-35.721H273.86v-40.708l47.934,15.978l11.295-33.888
	l-59.229-19.744v-34.508l39.438,22.77l26.791-15.467v-45.539l29.884,17.253l-12.517,61.166l34.996,7.162l10.13-49.501l35.254,20.354
	l-14.884,25.78l30.934,17.86l47.628-82.494l-30.934-17.86L455.698,350.672z M304.368,339.776l-30.508-17.614v-15.653
	c6.256-2.218,11.977-5.57,16.923-9.803l13.585,7.843V339.776z M304.368,207.452l-13.585,7.843
	c-4.946-4.234-10.667-7.585-16.923-9.803v-15.653l30.508-17.614V207.452z M322.229,273.614l-13.56-7.829
	c0.588-3.176,0.912-6.443,0.912-9.785c0-3.342-0.323-6.611-0.912-9.786l13.56-7.828L352.736,256L322.229,273.614z"/>
<g>
</g>
<g>
</g>
<g>
</g>
<g>
</g>
<g>
</g>
<g>
</g>
<g>
</g>
<g>
</g>
<g>
</g>
<g>
</g>
<g>
</g>
<g>
</g>
<g>
</g>
<g>
</g>
<g>
</g>
</svg>
