<?xml version="1.0" encoding="iso-8859-1"?>
<!-- Generator: Adobe Illustrator 19.0.0, SVG Export Plug-In . SVG Version: 6.00 Build 0)  -->
<svg version="1.1" id="Capa_1" xmlns="http://www.w3.org/2000/svg" xmlns:xlink="http://www.w3.org/1999/xlink" x="0px" y="0px"
	 viewBox="0 0 512 512" style="enable-background:new 0 0 512 512;" xml:space="preserve">
<path style="fill:#E5E1E1;" d="M345.946,97.452c0-49.678-40.269-89.948-89.946-89.948c-49.676,0-89.946,40.271-89.946,89.948
	c0,26.082,11.112,49.56,28.847,65.988l-1.566,3.225h125.372l-1.604-3.225C334.834,147.012,345.946,123.534,345.946,97.452z"/>
<path style="fill:#D1CFCF;" d="M266.279,8.091c-53.707-6.106-100.228,35.865-100.228,89.36c0,26.082,11.112,49.56,28.847,65.988
	l-1.566,3.225h20.561l1.566-3.225C159.303,111.419,189.956,16.779,266.279,8.091z"/>
<path style="fill:#E5E1E1;" d="M346.232,222.616c-0.494,0.015-0.636,0.037,0.304-0.016l-1.475-2.965H167.605l-1.457,3
	c-0.129,0-0.254-0.016-0.382-0.02c-39.438,28.181-65.148,74.34-65.148,126.506c0,85.814,69.566,155.379,155.379,155.379
	c85.816,0,155.38-69.566,155.38-155.379C411.379,296.956,385.669,250.796,346.232,222.616z"/>
<path style="fill:#D1CFCF;" d="M120.621,349.122c0-52.166,25.71-98.326,65.148-126.506c0.128,0.004,0.253,0.02,0.382,0.02l1.457-3
	h-20.001l-1.457,3c-0.129,0-0.254-0.016-0.382-0.02c-39.438,28.181-65.148,74.34-65.148,126.506
	c0,89.322,75.295,160.769,165.38,155.05C184.848,499.016,120.621,431.575,120.621,349.122z"/>
<path style="fill:#F76A66;" d="M188.161,325.698c0,7.006,5.68,12.686,12.686,12.686h33.825c7.005,0,12.686-5.679,12.686-12.686
	V219.635h-59.195L188.161,325.698L188.161,325.698z"/>
<path style="fill:#EA473B;" d="M217.758,219.635h-29.598v106.063c0,7.006,5.68,12.686,12.686,12.686h16.912V219.635z"/>
<g>
	<path style="fill:#93603E;" d="M210.553,127.648c-3.103-2.743-3.394-7.483-0.65-10.587c2.744-3.104,7.484-3.395,10.588-0.65
		c20.301,17.951,50.759,17.914,71.018,0c3.103-2.744,7.842-2.454,10.588,0.65c2.744,3.103,2.453,7.843-0.65,10.587
		C275.467,150.62,236.48,150.575,210.553,127.648z"/>
	<path style="fill:#93603E;" d="M242.295,96.979c-4.142,0-7.5-3.357-7.5-7.5c0-4.517-3.674-8.19-8.19-8.19
		c-4.441,0-8.037,3.474-8.185,7.908c-0.138,4.14-3.597,7.371-7.746,7.246c-4.14-0.139-7.384-3.606-7.245-7.746
		c0.419-12.566,10.601-22.409,23.177-22.409C249.382,66.287,256.868,96.979,242.295,96.979z"/>
	<path style="fill:#93603E;" d="M301.762,96.979c-4.142,0-7.5-3.357-7.5-7.5c0-4.517-3.674-8.19-8.19-8.19
		c-4.441,0-8.037,3.474-8.185,7.908c-0.138,4.14-3.584,7.371-7.746,7.246c-14.167-0.474-6.592-30.156,15.932-30.156
		C308.85,66.287,316.335,96.979,301.762,96.979z"/>
</g>
<g>
	<path style="fill:#C16B3D;" d="M52.948,156.767l11.433-32.23c1.385-3.903-0.657-8.19-4.561-9.576
		c-3.904-1.383-8.191,0.657-9.577,4.562l-8.69,24.497l-24.129-26.99c-2.761-3.088-7.502-3.353-10.591-0.592
		s-3.353,7.502-0.592,10.591l23.14,25.883l-22.885,3.096c-4.105,0.556-6.982,4.333-6.427,8.439c0.554,4.096,4.321,6.981,8.438,6.427
		l32.948-4.457l84.563,94.586c2.76,3.087,7.5,3.354,10.591,0.592c3.088-2.761,3.353-7.502,0.592-10.591L52.948,156.767z"/>
	<path style="fill:#C16B3D;" d="M505.503,156.008l-22.885-3.096l23.14-25.883c2.761-3.088,2.496-7.829-0.592-10.591
		c-3.087-2.761-7.829-2.495-10.591,0.592l-24.129,26.99l-8.69-24.497c-1.385-3.904-5.674-5.946-9.577-4.562
		c-3.904,1.385-5.946,5.672-4.561,9.576l11.433,32.23L374.8,251.002c-2.761,3.088-2.496,7.829,0.592,10.591
		c3.087,2.761,7.829,2.496,10.591-0.592l84.563-94.586c35.423,4.792,33.17,4.525,33.963,4.525c3.695,0,6.914-2.732,7.423-6.495
		C512.486,160.341,509.608,156.563,505.503,156.008z"/>
</g>
<path style="fill:#EA473B;" d="M317.1,163.44H194.898l-28.75,59.194c1.525,0,179.406,0.019,180.387-0.035L317.1,163.44z"/>
<polygon style="fill:#D63322;" points="194.898,163.44 166.148,222.636 188.161,222.636 216.91,163.44 "/>
<path style="fill:#F76A66;" d="M166.148,222.636c1.525,0,179.406,0.019,180.387-0.035l-14.709-29.563H180.524L166.148,222.636z"/>
<polygon style="fill:#EA5E5E;" points="180.524,193.038 166.148,222.636 188.161,222.636 202.535,193.038 "/>
<g>
</g>
<g>
</g>
<g>
</g>
<g>
</g>
<g>
</g>
<g>
</g>
<g>
</g>
<g>
</g>
<g>
</g>
<g>
</g>
<g>
</g>
<g>
</g>
<g>
</g>
<g>
</g>
<g>
</g>
</svg>
