<?xml version="1.0" encoding="iso-8859-1"?>
<!-- Generator: Adobe Illustrator 18.0.0, SVG Export Plug-In . SVG Version: 6.00 Build 0)  -->
<!DOCTYPE svg PUBLIC "-//W3C//DTD SVG 1.1//EN" "http://www.w3.org/Graphics/SVG/1.1/DTD/svg11.dtd">
<svg version="1.1" id="Capa_1" xmlns="http://www.w3.org/2000/svg" xmlns:xlink="http://www.w3.org/1999/xlink" x="0px" y="0px"
	 viewBox="0 0 57 57" style="enable-background:new 0 0 57 57;" xml:space="preserve">
<g>
	<path style="fill:#464F5D;" d="M13.394,32.081l-6.103-2.615l1.638-4.094c0.205-0.513-0.045-1.095-0.558-1.3
		c-0.508-0.203-1.095,0.044-1.3,0.557L5.635,28.22l-2.927-2.927c-0.391-0.391-1.023-0.391-1.414,0s-0.391,1.023,0,1.414l3.185,3.185
		L1.4,32.2c-0.442,0.331-0.532,0.958-0.2,1.4C1.396,33.862,1.696,34,2.001,34C2.21,34,2.42,33.935,2.6,33.8l3.538-2.653l6.469,2.772
		C12.734,33.974,12.868,34,13,34c0.388,0,0.757-0.228,0.919-0.606C14.137,32.886,13.901,32.298,13.394,32.081z"/>
	<path style="fill:#464F5D;" d="M52.522,29.892l3.185-3.185c0.391-0.391,0.391-1.023,0-1.414s-1.023-0.391-1.414,0l-2.927,2.927
		l-1.437-3.592c-0.205-0.513-0.791-0.76-1.3-0.557c-0.513,0.206-0.763,0.787-0.558,1.3l1.638,4.094l-6.103,2.615
		c-0.508,0.217-0.743,0.805-0.525,1.313C43.243,33.773,43.612,34,44,34c0.132,0,0.266-0.026,0.394-0.082l6.469-2.772L54.4,33.8
		c0.18,0.135,0.39,0.2,0.599,0.2c0.305,0,0.604-0.138,0.801-0.4c0.332-0.442,0.242-1.069-0.2-1.4L52.522,29.892z"/>
	<g>
		<path style="fill:#E6E7E8;" d="M41.077,29.018c-0.408,0.262-0.708,0.395-0.708,0.395c-0.053,0.033-0.106,0.066-0.159,0.098
			c-4.622,2.825-10.332,3.228-15.393,1.297c-3.635-1.387-6.907-2.707-7.753-3.051C13.944,30.848,12,35.188,12,40
			c0,9.389,7.387,17,16.5,17S45,49.389,45,40C45,35.808,43.519,31.98,41.077,29.018z"/>
	</g>
	<path style="fill:#E6E7E8;" d="M22.369,25.413c2.992,1.366,6.113,1.762,8.728,1.761c0.895,0,1.776-0.104,2.64-0.278
		C37.453,25.238,40,21.881,40,18c0-3.277-1.821-6.176-4.621-8H21.621C18.821,11.824,17,14.723,17,18c0,2.165,0.799,4.163,2.143,5.8
		L22.369,25.413z"/>
	<path style="fill:#C03A2B;" d="M39.539,24.431c-0.035,0.022-0.07,0.044-0.106,0.067c-2.502,1.635-5.347,2.674-8.336,2.675
		c-2.615,0.001-5.736-0.396-8.728-1.761l-4-2c0,0-4.125-3.375-5-1c0,0-1.585,2.538,3.477,5.257c0,0,3.744,1.526,7.971,3.139
		c2.396,0.914,4.937,1.286,7.44,1.145c0,0,0,0,0,0c0.446,1.833,1.202,5.976-0.096,9.15C31.79,42.009,32.443,43,33.422,43h3.206
		C37.385,43,38,42.385,38,41.627V30.623c0,0-0.001,0-0.002,0.001c0.757-0.32,1.5-0.678,2.212-1.112
		c0.053-0.032,0.106-0.065,0.159-0.098c0,0,1.241-0.543,2.127-1.646C44.064,25.815,41.665,23.11,39.539,24.431z"/>
	<circle style="fill:#464F5D;" cx="25" cy="15" r="2"/>
	<circle style="fill:#464F5D;" cx="32" cy="15" r="2"/>
	<circle style="fill:#464F5D;" cx="28.5" cy="35.5" r="1.5"/>
	<circle style="fill:#464F5D;" cx="28.5" cy="41.5" r="1.5"/>
	<circle style="fill:#464F5D;" cx="28.5" cy="47.5" r="1.5"/>
	<g>
		<path style="fill:#464F5D;" d="M25.165,22.942c-0.186,0-0.373-0.051-0.541-0.159c-0.479-0.309-0.927-0.671-1.332-1.076
			c-0.39-0.391-0.39-1.024,0.001-1.414c0.391-0.39,1.024-0.391,1.415,0.001c0.304,0.304,0.64,0.576,1,0.808
			c0.464,0.299,0.598,0.918,0.299,1.382C25.815,22.78,25.493,22.942,25.165,22.942z"/>
		<path style="fill:#464F5D;" d="M28.95,24.052c-0.506,0-1.016-0.048-1.515-0.145c-0.542-0.104-0.897-0.628-0.794-1.17
			c0.104-0.542,0.633-0.895,1.171-0.793c0.749,0.143,1.523,0.144,2.269,0.001c0.55-0.102,1.066,0.253,1.17,0.795
			c0.104,0.542-0.253,1.066-0.795,1.169C29.961,24.004,29.454,24.052,28.95,24.052z"/>
		<path style="fill:#464F5D;" d="M32.734,22.942c-0.329,0-0.65-0.162-0.842-0.458c-0.299-0.464-0.165-1.083,0.299-1.382
			c0.36-0.231,0.696-0.503,1-0.808c0.391-0.392,1.024-0.391,1.415-0.001c0.391,0.39,0.391,1.023,0.001,1.414
			c-0.405,0.405-0.854,0.767-1.332,1.076C33.107,22.891,32.92,22.942,32.734,22.942z"/>
	</g>
	<path style="fill:#556080;" d="M40,9h-5.578C31.899,6.46,35,0,35,0H21c2.988,4.38,1.332,7.504,0.05,9H17c-0.553,0-1,0.448-1,1
		s0.447,1,1,1h23c0.553,0,1-0.448,1-1S40.553,9,40,9z"/>
</g>
<g>
</g>
<g>
</g>
<g>
</g>
<g>
</g>
<g>
</g>
<g>
</g>
<g>
</g>
<g>
</g>
<g>
</g>
<g>
</g>
<g>
</g>
<g>
</g>
<g>
</g>
<g>
</g>
<g>
</g>
</svg>
