<?xml version="1.0" encoding="iso-8859-1"?>
<!-- Generator: Adobe Illustrator 19.0.0, SVG Export Plug-In . SVG Version: 6.00 Build 0)  -->
<svg version="1.1" id="Capa_1" xmlns="http://www.w3.org/2000/svg" xmlns:xlink="http://www.w3.org/1999/xlink" x="0px" y="0px"
	 viewBox="0 0 512 512" style="enable-background:new 0 0 512 512;" xml:space="preserve">
<path style="fill:#3BBC56;" d="M432.05,0H110.917c-6.827,0-12.363,5.535-12.363,12.363c0,20.61,0,467.471,0,487.273
	c0,6.827,5.535,12.363,12.363,12.363H432.05c6.828,0,12.363-5.535,12.363-12.363V12.363C444.413,5.535,438.879,0,432.05,0z"/>
<path style="fill:#30AA44;" d="M120.213,499.636c0-19.817,0-466.671,0-487.273C120.213,5.535,125.749,0,132.576,0h-21.659
	c-6.827,0-12.363,5.535-12.363,12.363c0,20.61,0,467.471,0,487.273c0,6.827,5.535,12.363,12.363,12.363h21.659
	C125.749,511.999,120.213,506.464,120.213,499.636z"/>
<rect x="98.551" y="360.16" style="fill:#8DD83D;" width="345.86" height="35.511"/>
<rect x="98.551" y="325.68" style="fill:#5CCC2E;" width="345.86" height="35.509"/>
<rect x="220.351" style="fill:#8DD83D;" width="35.51" height="512"/>
<rect x="185.871" style="fill:#5CCC2E;" width="35.51" height="512"/>
<g>
	<path style="fill:#EA473B;" d="M181.942,330.825c0-2.498,0.53-4.871,1.469-7.023l-84.62-41.527
		c-4.319-2.06-31.204-13.706-31.204,15.9c0,9.513,0,80.231,0,89.741c0,29.602,26.884,17.959,31.204,15.898l84.62-41.524
		C181.51,357.934,181.942,357.432,181.942,330.825z"/>
	<path style="fill:#EA473B;" d="M341.907,282.275l-84.626,41.528c0.94,2.151,1.472,4.524,1.472,7.023
		c0,26.579,0.433,27.101-1.472,31.466l84.626,41.524c4.315,2.06,31.2,13.704,31.2-15.898v-44.87v-44.871
		C373.107,268.569,346.222,280.215,341.907,282.275z"/>
</g>
<path style="fill:#D63322;" d="M90.861,387.916c0-9.511,0-80.229,0-89.741c0-8.83,2.399-13.971,5.87-16.811
	c-7.618-3.142-29.144-9.689-29.144,16.811c0,9.513,0,80.231,0,89.741c0,26.496,21.526,19.952,29.144,16.809
	C93.26,401.885,90.861,396.745,90.861,387.916z"/>
<path style="fill:#EA473B;" d="M199.498,370.495c-7.198,0-13.377-4.333-16.087-10.531l-10.569,5.185
	c-24.422,20.833-46.736,53.701-58.24,72.102c0,0.003-0.003,0.003-0.003,0.005c-8.465,13.06,3.117,18.821,3.186,18.857
	c6.298,2.896,28.191,12.963,40.88,18.796c14.846,6.828,18.155-7.064,18.155-7.064h0.006c14.072-50.405,35.328-87.062,41.669-97.351
	h-18.997V370.495z"/>
<path style="fill:#D63322;" d="M135.307,457.097c0-0.003,0.002-0.003,0.002-0.005c11.115-22.013,32.126-60.13,56.993-88.148
	c-3.964-1.786-7.147-4.994-8.891-8.98l-10.569,5.185c-24.422,20.833-46.736,53.701-58.24,72.102c0,0.003-0.003,0.003-0.003,0.005
	c-8.465,13.06,3.117,18.821,3.186,18.857l15.181,6.98C133.412,461.27,134.16,459.277,135.307,457.097z"/>
<path style="fill:#EA473B;" d="M327.204,439.044c-11.132-17.988-34.13-52.376-59.375-73.905l-10.548-5.175
	c-2.712,6.198-8.889,10.531-16.089,10.531h-18.996c6.332,10.271,27.529,46.83,41.601,97.114h0.006
	c2.806,9.384,9.289,11.451,14.408,9.056c0.362-0.167,41.546-19.106,41.546-19.106c13.451-6.185,9.133-15.626,7.786-17.969
	C327.43,439.408,327.204,439.044,327.204,439.044z"/>
<g>
	<path style="fill:#D63322;" d="M249.191,368.557c-4.751,2.44-6.464,1.938-26.996,1.938c6.332,10.271,27.529,46.83,41.601,97.114
		h0.006c2.806,9.384,9.289,11.451,14.408,9.056l13.126-6.036C278.077,425.315,260.547,389.3,249.191,368.557z"/>
	<path style="fill:#D63322;" d="M241.192,312.685h-41.694c-10.002,0-18.138,8.138-18.138,18.14v24.441
		c0,10.001,8.137,18.137,18.138,18.137h41.694c10.004,0,18.144-8.136,18.144-18.137v-24.441
		C259.336,320.824,251.196,312.685,241.192,312.685z"/>
</g>
<path style="fill:#C62A1E;" d="M204.633,355.267v-24.441c0-10.002,8.136-18.14,18.137-18.14h-23.272
	c-10.002,0-18.138,8.138-18.138,18.14v24.441c0,10.001,8.137,18.137,18.138,18.137h23.272
	C212.77,373.403,204.633,365.267,204.633,355.267z"/>
<g>
</g>
<g>
</g>
<g>
</g>
<g>
</g>
<g>
</g>
<g>
</g>
<g>
</g>
<g>
</g>
<g>
</g>
<g>
</g>
<g>
</g>
<g>
</g>
<g>
</g>
<g>
</g>
<g>
</g>
</svg>
