<?xml version="1.0" encoding="iso-8859-1"?>
<!-- Generator: Adobe Illustrator 19.0.0, SVG Export Plug-In . SVG Version: 6.00 Build 0)  -->
<svg version="1.1" id="Capa_1" xmlns="http://www.w3.org/2000/svg" xmlns:xlink="http://www.w3.org/1999/xlink" x="0px" y="0px"
	 viewBox="0 0 511.999 511.999" style="enable-background:new 0 0 511.999 511.999;" xml:space="preserve">
<polygon style="fill:#93D6F4;" points="86.849,71.677 87.177,139.289 27.989,171.976 262.055,309.332 320.913,209.033 "/>
<polygon style="fill:#6FC8F1;" points="424.823,139.289 425.152,71.677 191.088,209.033 249.946,309.332 484.011,171.976 "/>
<rect x="59.667" y="223.099" style="fill:#FF4F19;" width="200.67" height="288.9"/>
<rect x="251.67" y="223.099" style="fill:#DC3910;" width="200.67" height="288.9"/>
<rect x="49" y="183.659" style="fill:#FF7247;" width="179.33" height="105.79"/>
<rect x="283.67" y="183.659" style="fill:#FF4F19;" width="179.33" height="105.79"/>
<path style="fill:#BEE6F9;" d="M256,42.333c-0.313-0.728-0.637-1.451-0.983-2.167c-9.391-19.422-27.484-34.345-50.283-38.822
	c-38.49-7.558-75.819,17.517-83.377,56.007c-4.478,22.802,2.498,45.196,16.929,61.235c8.641,9.604,95.358,86.545,117.714,106.348
	V42.333z"/>
<path style="fill:#93D6F4;" d="M256,42.333c0.313-0.728,0.637-1.451,0.983-2.167c9.391-19.422,27.484-34.345,50.283-38.822
	c38.49-7.558,75.819,17.517,83.377,56.007c4.478,22.802-2.498,45.196-16.929,61.235c-8.642,9.604-95.358,86.545-117.714,106.348
	V42.333z"/>
<path style="fill:#DBF1FB;" d="M303,511.999h-94V183.332h94V511.999z"/>
<path style="fill:#BEE6F9;" d="M303,511.999h-47V183.332h47V511.999z"/>
<g>
</g>
<g>
</g>
<g>
</g>
<g>
</g>
<g>
</g>
<g>
</g>
<g>
</g>
<g>
</g>
<g>
</g>
<g>
</g>
<g>
</g>
<g>
</g>
<g>
</g>
<g>
</g>
<g>
</g>
</svg>
