<?xml version="1.0" encoding="iso-8859-1"?>
<!-- Generator: Adobe Illustrator 19.0.0, SVG Export Plug-In . SVG Version: 6.00 Build 0)  -->
<svg version="1.1" id="Capa_1" xmlns="http://www.w3.org/2000/svg" xmlns:xlink="http://www.w3.org/1999/xlink" x="0px" y="0px"
	 viewBox="0 0 512 512" style="enable-background:new 0 0 512 512;" xml:space="preserve">
<path style="fill:#FCB641;" d="M296,0c-26.512,0-48,21.488-48,48c0-26.512-21.488-48-48-48H72v72c0,26.512,21.488,48,48,48h128h128
	c26.512,0,48-21.488,48-48V0H296z"/>
<path style="fill:#FE965D;" d="M280,48c-17.672,0-32,14.328-32,32c0-17.672-14.328-32-32-32h-96v40c0,17.672,14.328,32,32,32h96h96
	c17.672,0,32-14.328,32-32V48H280z"/>
<path style="fill:#FE7B35;" d="M216,48h-96v40c0,17.672,14.328,32,32,32h96V80C248,62.328,233.672,48,216,48z"/>
<path style="fill:#FCB641;" d="M384,344c0,13.256-10.744,24-24,24s-24-10.744-24-24"/>
<path style="fill:#D63230;" d="M440,200H72v296c0,8.84,7.16,16,16,16h336c8.84,0,16-7.16,16-16V200z"/>
<path style="fill:#ED4829;" d="M96,496V200H72v296c0,8.84,7.16,16,16,16h24C103.16,512,96,504.84,96,496z"/>
<path style="fill:#ED3735;" d="M448,104H64c-8.84,0-16,7.16-16,16v80c0,8.84,7.16,16,16,16h384c8.84,0,16-7.16,16-16v-80
	C464,111.16,456.84,104,448,104z"/>
<path style="fill:#ED4829;" d="M80,200v-80c0-8.84,7.16-16,16-16H64c-8.84,0-16,7.16-16,16v80c0,8.84,7.16,16,16,16h32
	C87.16,216,80,208.84,80,200z"/>
<rect x="216" y="208" style="fill:#9BC53D;" width="80" height="304"/>
<rect x="200" y="104" style="fill:#AFD164;" width="112" height="112"/>
<path style="fill:#FCB641;" d="M360,376c-17.648,0-32-14.352-32-32h16c0,8.824,7.176,16,16,16s16-7.176,16-16h16
	C392,361.648,377.648,376,360,376z"/>
<g>
	<rect x="144" y="304" style="fill:#A12624;" width="16" height="16"/>
	<rect x="184" y="352" style="fill:#A12624;" width="16" height="16"/>
	<rect x="104" y="352" style="fill:#A12624;" width="16" height="16"/>
</g>
<path style="fill:#FCB641;" d="M367.824,232.696l0.176-24.64l-16-0.12l-0.176,24.808C329.24,236.648,312,256.328,312,280v48h40.096
	l0.192,16.096l16-0.192L368.096,328H408v-48C408,256.2,390.576,236.448,367.824,232.696z"/>
<rect x="360" y="264" style="fill:#FE7B35;" width="16" height="16"/>
<g>
</g>
<g>
</g>
<g>
</g>
<g>
</g>
<g>
</g>
<g>
</g>
<g>
</g>
<g>
</g>
<g>
</g>
<g>
</g>
<g>
</g>
<g>
</g>
<g>
</g>
<g>
</g>
<g>
</g>
</svg>
