<?xml version="1.0" encoding="iso-8859-1"?>
<!-- Generator: Adobe Illustrator 19.0.0, SVG Export Plug-In . SVG Version: 6.00 Build 0)  -->
<svg version="1.1" id="Layer_1" xmlns="http://www.w3.org/2000/svg" xmlns:xlink="http://www.w3.org/1999/xlink" x="0px" y="0px"
	 viewBox="0 0 512 512" style="enable-background:new 0 0 512 512;" xml:space="preserve">
<path style="fill:#C9E3F7;" d="M512,238.933h-76.199l53.452-80.178l-93.84-18.031l53.675-53.675l-24.136-24.136l-53.881,53.881
	l-18.898-94.49l-79.105,53.604V0h-34.133v76.199l-80.178-53.452l-18.031,93.841L87.049,62.912L62.912,87.049l53.881,53.881
	l-94.49,18.898l53.605,79.105H0v34.133h76.199l-53.452,80.178l93.841,18.031l-53.675,53.675l24.136,24.136l53.881-53.881
	l18.898,94.49l79.105-53.604V512h34.133v-76.199l80.178,53.452l18.031-93.84l53.675,53.675l24.136-24.136l-53.881-53.881
	l94.49-18.898l-53.604-79.105H512V238.933z M394.777,238.933h-78.584c-1.341-4.723-3.219-9.219-5.571-13.419l55.635-55.635
	l66.09,12.7L394.777,238.933z M284.444,256c0,15.684-12.76,28.444-28.444,28.444s-28.444-12.76-28.444-28.444
	s12.76-28.444,28.444-28.444S284.444,240.316,284.444,256z M342.063,145.802l-55.577,55.577c-4.2-2.353-8.696-4.23-13.419-5.571
	v-78.667l55.712-37.754L342.063,145.802z M238.933,117.223v78.584c-4.723,1.341-9.219,3.219-13.419,5.571l-55.635-55.635l12.7-66.09
	L238.933,117.223z M145.802,169.937l55.577,55.577c-2.353,4.2-4.23,8.696-5.571,13.419h-78.667l-37.754-55.712L145.802,169.937z
	 M117.223,273.067h78.584c1.341,4.723,3.219,9.219,5.571,13.419l-55.635,55.635l-66.09-12.7L117.223,273.067z M169.937,366.198
	l55.577-55.577c4.2,2.353,8.696,4.23,13.419,5.571v78.667l-55.712,37.754L169.937,366.198z M329.422,432.348l-56.355-37.571v-78.584
	c4.723-1.341,9.219-3.219,13.419-5.571l55.635,55.635L329.422,432.348z M366.198,342.063l-55.577-55.577
	c2.353-4.2,4.23-8.696,5.571-13.419h78.667l37.754,55.712L366.198,342.063z"/>
<path style="fill:#AED5F3;" d="M512,238.933h-76.199l53.452-80.178l-93.84-18.031l53.675-53.675l-24.136-24.136l-53.881,53.881
	l-18.898-94.49l-79.105,53.604V0H256v227.556c15.684,0,28.444,12.76,28.444,28.444s-12.76,28.444-28.444,28.444V512h17.067v-76.199
	l80.178,53.452l18.031-93.84l53.675,53.675l24.136-24.136l-53.881-53.881l94.49-18.898l-53.604-79.105H512V238.933z
	 M366.258,169.879l66.09,12.7l-37.571,56.354h-78.584c-1.341-4.723-3.219-9.219-5.571-13.419L366.258,169.879z M273.067,195.807
	V117.14l55.712-37.754l13.284,66.416l-55.577,55.577C282.286,199.026,277.79,197.148,273.067,195.807z M329.422,432.348
	l-56.355-37.571v-78.584c4.723-1.341,9.219-3.219,13.419-5.571l55.635,55.635L329.422,432.348z M366.198,342.063l-55.577-55.577
	c2.353-4.2,4.23-8.696,5.571-13.419h78.667l37.754,55.712L366.198,342.063z"/>
<g>
</g>
<g>
</g>
<g>
</g>
<g>
</g>
<g>
</g>
<g>
</g>
<g>
</g>
<g>
</g>
<g>
</g>
<g>
</g>
<g>
</g>
<g>
</g>
<g>
</g>
<g>
</g>
<g>
</g>
</svg>
