<?xml version="1.0" encoding="iso-8859-1"?>
<!-- Generator: Adobe Illustrator 19.0.0, SVG Export Plug-In . SVG Version: 6.00 Build 0)  -->
<svg version="1.1" id="Layer_1" xmlns="http://www.w3.org/2000/svg" xmlns:xlink="http://www.w3.org/1999/xlink" x="0px" y="0px"
	 viewBox="0 0 512 512" style="enable-background:new 0 0 512 512;" xml:space="preserve">
<path style="fill:#C9E3F7;" d="M444.225,323.776L512,256.001l-67.775-67.776l-51.167,51.167H373.6l15.937-15.937l-23.487-23.487
	l-39.423,39.423h-12.05c-1.306-4.596-3.132-8.972-5.422-13.058l55.504-55.504h72.361V74.981h-95.848v72.361l-55.504,55.504
	c-4.087-2.29-8.463-4.117-13.058-5.421v-12.05l39.423-39.424l-23.487-23.487L272.609,138.4v-19.458l51.167-51.167L256.001,0
	l-67.776,67.775l51.167,51.167V138.4l-15.937-15.937l-23.487,23.487l39.423,39.424v12.05c-4.596,1.305-8.972,3.132-13.058,5.421
	l-55.504-55.504v-72.36H74.982v95.848h72.361l55.504,55.504c-2.29,4.087-4.117,8.462-5.421,13.058h-12.05l-39.424-39.423
	l-23.487,23.487l15.937,15.937h-19.458l-51.168-51.168L0,255.999l67.775,67.775l51.167-51.167H138.4l-15.937,15.937l23.487,23.487
	l39.424-39.423h12.05c1.305,4.596,3.132,8.972,5.421,13.058l-55.504,55.504H74.982v95.848h95.848v-72.361l55.504-55.504
	c4.087,2.29,8.462,4.117,13.058,5.422v12.049l-39.423,39.424l23.487,23.487l15.937-15.937v19.458l-51.169,51.167l67.775,67.775
	l67.775-67.775l-51.166-51.167v-19.458l15.937,15.937l23.487-23.487l-39.424-39.424v-12.05c4.595-1.305,8.972-3.132,13.058-5.421
	l55.504,55.504v72.361h95.848v-95.848h-72.361l-55.504-55.504c2.29-4.087,4.117-8.462,5.422-13.058h12.05l39.423,39.423
	l23.487-23.487l-15.937-15.937h19.458L444.225,323.776z M423.424,255.999l20.801-20.801l20.801,20.801L444.225,276.8
	L423.424,255.999z M283.681,255.999c0,15.263-12.417,27.68-27.68,27.68s-27.68-12.417-27.68-27.68s12.417-27.68,27.68-27.68
	S283.681,240.737,283.681,255.999z M374.387,108.197h29.416v29.416h-29.416V108.197z M256.001,46.975l20.801,20.801l-20.801,20.8
	L235.2,67.775L256.001,46.975z M108.198,108.197h29.416v29.416h-29.416V108.197z M88.576,255.999l-20.8,20.801l-20.801-20.801
	l20.801-20.801L88.576,255.999z M137.614,403.803h-29.416v-29.416h29.416V403.803z M256.001,465.025L235.2,444.224l20.801-20.801
	l20.801,20.801L256.001,465.025z M403.803,403.803h-29.416v-29.416h29.416V403.803z"/>
<g>
	<polygon style="fill:#AED5F3;" points="1.344,254.656 0,255.999 1.344,257.344 	"/>
	<path style="fill:#AED5F3;" d="M444.225,323.776L512,256.001l-67.775-67.776l-51.167,51.167H373.6l15.937-15.937l-23.487-23.487
		l-39.423,39.423h-12.05c-1.306-4.596-3.132-8.972-5.422-13.058l55.504-55.504h72.361V74.981h-95.848v72.361l-55.504,55.504
		c-4.087-2.29-8.463-4.117-13.058-5.421v-12.05l39.423-39.424l-23.487-23.487L272.609,138.4v-19.458l51.167-51.167L256.001,0v46.975
		l20.801,20.801l-20.801,20.8v139.743c15.263,0,27.68,12.417,27.68,27.68s-12.417,27.68-27.68,27.68v139.743l20.801,20.801
		l-20.801,20.801V512l67.775-67.775l-51.167-51.168v-19.458l15.937,15.937l23.487-23.487l-39.424-39.424v-12.05
		c4.595-1.305,8.972-3.132,13.058-5.421l55.504,55.504v72.361h95.848v-95.848h-72.361l-55.504-55.504
		c2.29-4.087,4.117-8.462,5.422-13.058h12.05l39.423,39.423l23.487-23.487l-15.937-15.937h19.458L444.225,323.776z M444.225,235.2
		l20.801,20.801l-20.801,20.8l-20.801-20.801L444.225,235.2z M374.387,108.197h29.416v29.416h-29.416V108.197z M374.387,374.386
		h29.416v29.416h-29.416V374.386z"/>
</g>
<g>
</g>
<g>
</g>
<g>
</g>
<g>
</g>
<g>
</g>
<g>
</g>
<g>
</g>
<g>
</g>
<g>
</g>
<g>
</g>
<g>
</g>
<g>
</g>
<g>
</g>
<g>
</g>
<g>
</g>
</svg>
