<?xml version="1.0" encoding="iso-8859-1"?>
<!-- Generator: Adobe Illustrator 19.0.0, SVG Export Plug-In . SVG Version: 6.00 Build 0)  -->
<svg version="1.1" id="Layer_1" xmlns="http://www.w3.org/2000/svg" xmlns:xlink="http://www.w3.org/1999/xlink" x="0px" y="0px"
	 viewBox="0 0 512 512" style="enable-background:new 0 0 512 512;" xml:space="preserve">
<path style="fill:#C9E3F7;" d="M512,238.933h-33.541l29.421-34.264l-25.896-22.237l-48.514,56.501h-41.879l52.103-60.68
	l-79.749-6.064l29.612-29.612l74.256,5.647l2.588-34.035l-45.032-3.425l23.716-23.716L424.95,62.912l-23.716,23.716l-3.425-45.032
	l-34.035,2.587l5.647,74.257l-29.611,29.612l-6.064-79.749l-60.679,52.105V78.529l56.5-48.515L307.331,4.119l-34.264,29.421V0
	h-34.133v33.539L204.669,4.119l-22.236,25.896l56.5,48.515v41.878l-60.68-52.103l-6.064,79.749l-29.611-29.612l5.647-74.257
	l-34.035-2.587l-3.425,45.032L87.049,62.912L62.913,87.049l23.716,23.716l-45.032,3.425l2.588,34.035l74.256-5.647l29.612,29.612
	l-79.749,6.064l52.103,60.679H78.529l-48.515-56.501L4.119,204.669l29.422,34.264H0v34.133h33.541L4.119,307.331l25.896,22.237
	l48.515-56.501h41.879l-52.103,60.68l79.749,6.064l-29.612,29.612l-74.256-5.647l-2.588,34.035l45.032,3.425l-23.716,23.716
	l24.136,24.136l23.716-23.716l3.425,45.032l34.035-2.587l-5.647-74.257l29.611-29.612l6.064,79.749l60.679-52.105v41.878
	l-56.5,48.515l22.236,25.897l34.264-29.422V512h34.133v-33.539l34.264,29.421l22.236-25.897l-56.5-48.514v-41.878l60.68,52.103
	l6.064-79.749l29.611,29.612l-5.647,74.257l34.035,2.587l3.425-45.032l23.716,23.716l24.136-24.136l-23.716-23.716l45.032-3.425
	l-2.588-34.035l-74.256,5.647l-29.612-29.612l79.749-6.064l-52.103-60.679h41.879l48.515,56.501l25.896-22.237l-29.423-34.264H512
	V238.933z M373.871,207.176l-27.268,31.758h-30.411c-1.343-4.723-3.219-9.219-5.572-13.419l21.512-21.512L373.871,207.176z
	 M284.444,256c0,15.684-12.76,28.444-28.444,28.444s-28.444-12.76-28.444-28.444s12.76-28.444,28.444-28.444
	S284.444,240.316,284.444,256z M304.824,138.128l3.173,41.738l-21.512,21.512c-4.198-2.353-8.697-4.23-13.419-5.571v-30.411
	L304.824,138.128z M207.176,138.128l31.758,27.269v30.411c-4.722,1.341-9.219,3.219-13.419,5.571l-21.512-21.512L207.176,138.128z
	 M138.128,207.176l41.738-3.174l21.511,21.512c-2.352,4.2-4.23,8.696-5.571,13.419h-30.411L138.128,207.176z M138.128,304.824
	l27.268-31.758h30.411c1.341,4.723,3.219,9.219,5.571,13.419l-21.511,21.512L138.128,304.824z M207.176,373.871l-3.173-41.738
	l21.512-21.513c4.2,2.353,8.697,4.23,13.419,5.572v30.411L207.176,373.871z M304.824,373.871l-31.758-27.269v-30.411
	c4.722-1.341,9.221-3.219,13.419-5.572l21.512,21.513L304.824,373.871z M373.871,304.824l-41.738,3.174l-21.512-21.512
	c2.353-4.2,4.23-8.696,5.572-13.419h30.411L373.871,304.824z"/>
<path style="fill:#AED5F3;" d="M512,238.933h-33.541l29.421-34.264l-25.896-22.237l-48.514,56.501h-41.879l52.103-60.68
	l-79.749-6.064l29.612-29.612l74.256,5.647l2.588-34.035l-45.032-3.425l23.716-23.716L424.95,62.912l-23.716,23.716l-3.425-45.032
	l-34.035,2.587l5.647,74.257l-29.611,29.612l-6.064-79.749l-60.679,52.105V78.529l56.5-48.515L307.331,4.119l-34.264,29.421V0H256
	v227.556c15.684,0,28.444,12.76,28.444,28.444s-12.76,28.444-28.444,28.444V512h17.067v-33.539l34.264,29.421l22.236-25.897
	l-56.5-48.514v-41.878l60.68,52.103l6.064-79.749l29.611,29.612l-5.647,74.257l34.035,2.587l3.425-45.032l23.716,23.716
	l24.136-24.136l-23.716-23.716l45.032-3.425l-2.588-34.035l-74.256,5.647l-29.612-29.612l79.749-6.064l-52.103-60.679h41.879
	l48.515,56.501l25.896-22.237l-29.423-34.264H512V238.933z M304.824,373.871l-31.758-27.269v-30.411
	c4.722-1.341,9.221-3.219,13.419-5.572l21.512,21.513L304.824,373.871z M286.486,201.379c-4.198-2.353-8.697-4.23-13.419-5.571
	v-30.411l31.758-27.269l3.173,41.738L286.486,201.379z M332.133,307.998l-21.512-21.512c2.353-4.2,4.23-8.696,5.572-13.419h30.411
	l27.268,31.758L332.133,307.998z M346.604,238.933h-30.411c-1.343-4.723-3.219-9.219-5.572-13.419l21.512-21.512l41.738,3.174
	L346.604,238.933z"/>
<g>
</g>
<g>
</g>
<g>
</g>
<g>
</g>
<g>
</g>
<g>
</g>
<g>
</g>
<g>
</g>
<g>
</g>
<g>
</g>
<g>
</g>
<g>
</g>
<g>
</g>
<g>
</g>
<g>
</g>
</svg>
