<?xml version="1.0" encoding="iso-8859-1"?>
<!-- Generator: Adobe Illustrator 19.0.0, SVG Export Plug-In . SVG Version: 6.00 Build 0)  -->
<svg version="1.1" id="Layer_1" xmlns="http://www.w3.org/2000/svg" xmlns:xlink="http://www.w3.org/1999/xlink" x="0px" y="0px"
	 viewBox="0 0 512 512" style="enable-background:new 0 0 512 512;" xml:space="preserve">
<path style="fill:#C9E3F7;" d="M485.629,289.246l-94.197,25.24l-22.472-12.975L447.788,256l-78.828-45.511l22.472-12.974
	l94.197,25.24l8.834-32.971l-61.227-16.406l52.999-30.599l-17.067-29.559l-52.999,30.599l16.407-61.227l-32.972-8.835l-25.24,94.198
	l-22.471,12.974V89.907l-78.828,45.511v-25.949l68.956-68.957l-24.136-24.136l-44.819,44.822V0h-34.133v61.198l-44.822-44.82
	l-24.136,24.136l68.957,68.956v25.948l-78.828-45.511v91.022l-22.471-12.974l-25.24-94.197l-32.972,8.835l16.406,61.227
	L42.831,113.22L25.764,142.78l52.999,30.599l-61.227,16.406l8.834,32.971l94.198-25.24l22.471,12.974L64.211,256l78.828,45.511
	l-22.471,12.974L26.37,289.246l-8.834,32.971l61.227,16.406L25.764,369.22l17.067,29.559l52.998-30.599l-16.406,61.227l32.972,8.835
	l25.24-94.198l22.471-12.974v91.022l78.828-45.511v25.948l-68.956,68.957l24.136,24.136l44.819-44.82V512h34.133v-61.198
	l44.822,44.82l24.136-24.136l-68.957-68.956v-25.949l78.828,45.511v-91.022l22.471,12.974l25.24,94.198l32.972-8.835L416.17,368.18
	l52.999,30.599l17.067-29.559l-52.999-30.599l61.227-16.406L485.629,289.246z M211.305,230.195l44.694-25.804l44.694,25.805v51.608
	l-44.694,25.804l-44.694-25.805V230.195z M334.827,281.805v-51.61L379.521,256L334.827,281.805z M317.76,149.026v51.608
	l-44.694-25.804l0,0L317.76,149.026z M238.933,174.831L238.933,174.831l-44.694,25.805v-51.61L238.933,174.831z M177.172,230.195
	v51.608L132.478,256L177.172,230.195z M194.239,362.974v-51.61l44.694,25.805l0,0L194.239,362.974z M273.066,337.169
	L273.066,337.169l44.694-25.805v51.608L273.066,337.169z"/>
<path style="fill:#AED5F3;" d="M485.629,289.246l-94.197,25.24l-22.472-12.975L447.788,256l-78.828-45.511l22.472-12.974
	l94.197,25.24l8.834-32.971l-61.227-16.406l52.999-30.599l-17.067-29.559l-52.999,30.599l16.407-61.227l-32.972-8.835l-25.24,94.198
	l-22.471,12.974V89.907l-78.828,45.511v-25.949l68.956-68.957l-24.136-24.136l-44.819,44.822V0h-17.067v204.392l44.694,25.805
	v51.608l-44.694,25.804V512h17.067v-61.198l44.822,44.82l24.136-24.136l-68.957-68.956v-25.949l78.828,45.511v-91.022l22.471,12.974
	l25.24,94.198l32.972-8.835L416.17,368.18l52.999,30.599l17.067-29.559l-52.999-30.599l61.227-16.406L485.629,289.246z
	 M317.76,362.974l-44.694-25.805l0,0l44.694-25.805V362.974z M317.76,200.636l-44.694-25.805l0,0l44.694-25.805V200.636z
	 M334.827,281.805v-51.61L379.521,256L334.827,281.805z"/>
<g>
</g>
<g>
</g>
<g>
</g>
<g>
</g>
<g>
</g>
<g>
</g>
<g>
</g>
<g>
</g>
<g>
</g>
<g>
</g>
<g>
</g>
<g>
</g>
<g>
</g>
<g>
</g>
<g>
</g>
</svg>
