<?xml version="1.0" encoding="iso-8859-1"?>
<!-- Generator: Adobe Illustrator 19.0.0, SVG Export Plug-In . SVG Version: 6.00 Build 0)  -->
<svg version="1.1" id="Layer_1" xmlns="http://www.w3.org/2000/svg" xmlns:xlink="http://www.w3.org/1999/xlink" x="0px" y="0px"
	 viewBox="0 0 512 512" style="enable-background:new 0 0 512 512;" xml:space="preserve">
<path style="fill:#C9E3F7;" d="M512,318.578V193.422h-34.133v45.511h-78.264l51.2-51.2l-24.136-24.136l-75.336,75.336h-35.138
	c-1.343-4.723-3.219-9.219-5.572-13.419l114.33-114.33l32.181,32.182l24.136-24.136l-88.497-88.5l-24.136,24.136l32.181,32.182
	l-114.33,114.33c-4.198-2.353-8.697-4.23-13.419-5.572v-35.138l75.336-75.336l-24.136-24.136l-51.2,51.2V34.133h45.511V0H193.422
	v34.133h45.511v78.264l-51.2-51.2l-24.136,24.136l75.336,75.336v35.138c-4.722,1.341-9.219,3.219-13.419,5.572l-114.33-114.33
	l32.181-32.182L119.23,30.731L30.733,119.23l24.136,24.136l32.181-32.182l114.328,114.33c-2.352,4.2-4.23,8.696-5.571,13.419
	h-35.138l-75.336-75.335l-24.136,24.136l51.2,51.2H34.133v-45.511H0v125.156h34.133v-45.511h78.264l-51.2,51.2l24.136,24.136
	l75.336-75.336h35.138c1.341,4.723,3.219,9.219,5.571,13.419L87.049,400.815l-32.181-32.182l-24.136,24.136l88.497,88.499
	l24.136-24.136l-32.181-32.182l114.33-114.33c4.2,2.353,8.697,4.23,13.419,5.572v35.138l-75.336,75.337l24.136,24.136l51.2-51.2
	v78.264h-45.511V512h125.156v-34.133h-45.511v-78.264l51.2,51.2l24.136-24.136l-75.336-75.336v-35.138
	c4.722-1.341,9.221-3.219,13.419-5.572l114.33,114.33l-32.181,32.182l24.136,24.136l88.497-88.499l-24.136-24.136l-32.181,32.182
	l-114.33-114.331c2.353-4.2,4.23-8.696,5.572-13.419h35.138l75.336,75.336l24.136-24.136l-51.2-51.2h78.264v45.511H512z
	 M284.444,256c0,15.684-12.76,28.444-28.444,28.444s-28.444-12.76-28.444-28.444s12.76-28.444,28.444-28.444
	S284.444,240.316,284.444,256z"/>
<path style="fill:#AED5F3;" d="M512,318.578V193.422h-34.133v45.511h-78.264l51.2-51.2l-24.136-24.136l-75.336,75.336h-35.138
	c-1.343-4.723-3.219-9.219-5.572-13.419l114.33-114.33l32.181,32.182l24.136-24.136l-88.497-88.5l-24.136,24.136l32.181,32.182
	l-114.33,114.33c-4.198-2.353-8.697-4.23-13.419-5.572v-35.138l75.336-75.336l-24.136-24.136l-51.2,51.2V34.133h45.511V0H256
	v227.556c15.684,0,28.444,12.76,28.444,28.444s-12.76,28.444-28.444,28.444V512h62.578v-34.133h-45.511v-78.264l51.2,51.2
	l24.136-24.136l-75.336-75.336v-35.138c4.722-1.341,9.221-3.219,13.419-5.572l114.33,114.33l-32.181,32.182l24.136,24.136
	l88.497-88.499l-24.136-24.136l-32.181,32.182l-114.33-114.331c2.353-4.2,4.23-8.696,5.572-13.419h35.138l75.336,75.336
	l24.136-24.136l-51.2-51.2h78.264v45.511H512z"/>
<g>
</g>
<g>
</g>
<g>
</g>
<g>
</g>
<g>
</g>
<g>
</g>
<g>
</g>
<g>
</g>
<g>
</g>
<g>
</g>
<g>
</g>
<g>
</g>
<g>
</g>
<g>
</g>
<g>
</g>
</svg>
