<?xml version="1.0" encoding="iso-8859-1"?>
<!-- Generator: Adobe Illustrator 19.0.0, SVG Export Plug-In . SVG Version: 6.00 Build 0)  -->
<svg version="1.1" id="Layer_1" xmlns="http://www.w3.org/2000/svg" xmlns:xlink="http://www.w3.org/1999/xlink" x="0px" y="0px"
	 viewBox="0 0 512 512" style="enable-background:new 0 0 512 512;" xml:space="preserve">
<path style="fill:#C9E3F7;" d="M382.999,310.146l-17.073-9.857l76.709-44.288l-76.709-44.288l17.073-9.857l69.897,18.729
	l24.807-92.583l-92.582-24.808l-18.729,69.895l-17.073,9.857V94.37l-76.709,44.288v-19.715l51.167-51.167L255.999,0l-67.775,67.775
	l51.167,51.167v19.715l-76.709-44.288v88.576l-17.073-9.857l-18.728-69.895L34.298,128l24.808,92.583l69.895-18.729l17.073,9.857
	l-76.709,44.288l76.709,44.288l-17.073,9.857l-69.895-18.729L34.298,384l92.583,24.808l18.728-69.895l17.073-9.857v88.577
	l76.709-44.289v19.714l-51.167,51.167l67.775,67.775l67.775-67.775l-51.167-51.167v-19.715l76.709,44.289v-88.577l17.073,9.857
	l18.729,69.895l92.582-24.808l-24.807-92.583L382.999,310.146z M400.992,339.712l28.415-7.613l7.613,28.415l-28.414,7.613
	L400.992,339.712z M376.203,255.999l-43.493,25.111l-17.667-10.2c1.206-4.774,1.853-9.768,1.853-14.911
	c0-5.143-0.648-10.138-1.853-14.911l17.667-10.2L376.203,255.999z M255.999,283.68c-15.263,0-27.68-12.417-27.68-27.68
	s12.417-27.68,27.68-27.68s27.68,12.417,27.68,27.68S271.263,283.68,255.999,283.68z M400.992,172.288l7.614-28.415l28.414,7.613
	l-7.613,28.415L400.992,172.288z M316.102,151.901v50.222l-17.705,10.222c-7.136-6.932-15.958-12.129-25.788-14.921v-20.412
	L316.102,151.901z M255.999,46.975l20.801,20.8l-20.801,20.801l-20.801-20.801L255.999,46.975z M195.898,151.901l43.493,25.111
	v20.412c-9.83,2.791-18.651,7.988-25.788,14.921l-17.705-10.222V151.901z M74.979,151.487l28.414-7.613l7.613,28.415l-28.414,7.613
	L74.979,151.487z M135.797,255.999l43.493-25.111l17.667,10.2c-1.206,4.774-1.853,9.768-1.853,14.911
	c0,5.143,0.647,10.138,1.853,14.911l-17.667,10.2L135.797,255.999z M74.979,360.513l7.613-28.415l28.414,7.613l-7.613,28.415
	L74.979,360.513z M195.898,360.099v-50.222l17.705-10.222c7.137,6.932,15.958,12.129,25.788,14.921v20.412L195.898,360.099z
	 M255.999,465.025l-20.801-20.801l20.801-20.801l20.801,20.801L255.999,465.025z M316.102,360.099l-43.493-25.111v-20.412
	c9.83-2.791,18.652-7.988,25.788-14.921l17.705,10.222V360.099z"/>
<path style="fill:#AED5F3;" d="M382.999,310.146l-17.073-9.857l76.709-44.288l-76.709-44.288l17.073-9.857l69.897,18.729
	l24.807-92.583l-92.582-24.808l-18.729,69.895l-17.073,9.857V94.37l-76.709,44.288v-19.715l51.167-51.167L255.999,0v46.975
	l20.801,20.8l-20.801,20.801v139.743c15.263,0,27.68,12.417,27.68,27.68s-12.417,27.68-27.68,27.68v139.743l20.801,20.801
	l-20.801,20.801V512l67.775-67.775l-51.167-51.168v-19.715l76.709,44.289v-88.577l17.073,9.857l18.729,69.895l92.582-24.808
	l-24.807-92.583L382.999,310.146z M408.606,143.873l28.414,7.613l-7.613,28.415l-28.415-7.613L408.606,143.873z M272.607,197.425
	v-20.412l43.493-25.111v50.222l-17.705,10.222C291.259,205.413,282.437,200.216,272.607,197.425z M316.102,360.099l-43.493-25.111
	v-20.412c9.83-2.791,18.652-7.988,25.788-14.921l17.705,10.222V360.099z M332.71,281.111l-17.667-10.2
	c1.206-4.774,1.853-9.768,1.853-14.911c0-5.143-0.648-10.138-1.853-14.911l17.667-10.2l43.493,25.111L332.71,281.111z
	 M408.606,368.126l-7.614-28.415l28.415-7.613l7.613,28.415L408.606,368.126z"/>
<g>
</g>
<g>
</g>
<g>
</g>
<g>
</g>
<g>
</g>
<g>
</g>
<g>
</g>
<g>
</g>
<g>
</g>
<g>
</g>
<g>
</g>
<g>
</g>
<g>
</g>
<g>
</g>
<g>
</g>
</svg>
