<?xml version="1.0" encoding="iso-8859-1"?>
<!-- Generator: Adobe Illustrator 19.0.0, SVG Export Plug-In . SVG Version: 6.00 Build 0)  -->
<svg version="1.1" id="Layer_1" xmlns="http://www.w3.org/2000/svg" xmlns:xlink="http://www.w3.org/1999/xlink" x="0px" y="0px"
	 viewBox="0 0 512 512" style="enable-background:new 0 0 512 512;" xml:space="preserve">
<path style="fill:#C9E3F7;" d="M477.867,216.178v22.756h-46.341l10.406-20.812l-30.53-15.264l-18.039,36.077h-62.027l-9.998-9.998
	v-14.138l43.86-43.86l38.266,12.756l10.794-32.382l-22.075-7.358l32.768-32.768l16.092,16.092l24.136-24.136L408.86,46.822
	l-24.136,24.136l16.092,16.092l-32.768,32.768l-7.358-22.075l-32.382,10.794l12.756,38.266l-43.86,43.86h-14.138l-9.999-9.998
	v-62.027l36.077-18.038l-15.264-30.53l-20.812,10.405V34.133h22.756V0h-79.644v34.133h22.756v46.341l-20.812-10.406l-15.264,30.53
	l36.077,18.039v62.027l-9.998,9.998h-14.138l-43.86-43.86l12.756-38.266l-32.382-10.794l-7.358,22.075l-32.768-32.768l16.092-16.092
	L103.14,46.822L46.822,103.14l24.136,24.136l16.092-16.092l32.768,32.768l-22.074,7.358l10.794,32.382l38.266-12.756l43.86,43.86
	v14.138l-9.999,9.999h-62.027l-18.038-36.077l-30.53,15.264l10.405,20.812H34.133v-22.756H0v79.644h34.133v-22.756h46.341
	l-10.406,20.812l30.53,15.264l18.039-36.077h62.027l9.998,9.998v14.138l-43.86,43.86l-38.266-12.756l-10.794,32.382l22.074,7.358
	l-32.768,32.768l-16.092-16.092L46.822,408.86l56.318,56.318l24.136-24.136l-16.092-16.092l32.768-32.768l7.358,22.075
	l32.382-10.794l-12.756-38.266l43.86-43.86h14.138l9.998,9.998v62.027l-36.077,18.038l15.264,30.53l20.813-10.405v46.341h-22.756
	V512h79.644v-34.133h-22.756v-46.341l20.812,10.406l15.264-30.53l-36.077-18.039v-62.027l9.998-9.998h14.138l43.86,43.86
	l-12.756,38.266l32.382,10.794l7.358-22.075l32.768,32.768l-16.092,16.092l24.136,24.136l56.318-56.318l-24.136-24.136
	l-16.092,16.092l-32.768-32.768l22.075-7.358l-10.794-32.382l-38.266,12.756l-43.86-43.86v-14.138l9.998-9.998h62.027l18.038,36.077
	l30.53-15.264l-10.404-20.813h46.341v22.756H512v-22.756v-34.133v-22.756H477.867z M287.205,268.925v18.28h-18.28L256,300.131
	l-12.925-12.925h-18.28v-18.281L211.869,256l12.925-12.925v-18.28h18.28l12.925-12.925l12.925,12.925h18.28v18.28L300.129,256
	L287.205,268.925z"/>
<polygon style="fill:#AED5F3;" points="477.867,216.178 477.867,238.933 431.526,238.933 441.932,218.121 411.401,202.857 
	393.363,238.933 331.336,238.933 321.338,228.936 321.338,214.798 365.198,170.937 403.464,183.693 414.258,151.311 
	392.183,143.953 424.951,111.185 441.043,127.275 465.178,103.14 408.86,46.822 384.725,70.958 400.815,87.049 368.047,119.817 
	360.689,97.742 328.307,108.536 341.063,146.802 297.202,190.662 283.064,190.662 273.067,180.664 273.067,118.637 309.143,100.599 
	293.879,70.068 273.067,80.474 273.067,34.133 295.822,34.133 295.822,0 256,0 256,211.869 268.925,224.795 287.205,224.795 
	287.205,243.075 300.131,256 287.205,268.925 287.205,287.205 268.925,287.205 256,300.131 256,512 295.822,512 295.822,477.867 
	273.067,477.867 273.067,431.526 293.879,441.932 309.143,411.401 273.067,393.363 273.067,331.336 283.064,321.338 
	297.202,321.338 341.063,365.198 328.307,403.464 360.689,414.258 368.047,392.183 400.815,424.951 384.725,441.043 408.86,465.178 
	465.178,408.86 441.043,384.725 424.951,400.815 392.183,368.047 414.258,360.689 403.464,328.307 365.198,341.063 321.338,297.202 
	321.338,283.064 331.336,273.067 393.363,273.067 411.401,309.143 441.932,293.879 431.526,273.067 477.867,273.067 
	477.867,295.822 512,295.822 512,273.067 512,238.933 512,216.178 "/>
<g>
</g>
<g>
</g>
<g>
</g>
<g>
</g>
<g>
</g>
<g>
</g>
<g>
</g>
<g>
</g>
<g>
</g>
<g>
</g>
<g>
</g>
<g>
</g>
<g>
</g>
<g>
</g>
<g>
</g>
</svg>
