<?xml version="1.0" encoding="iso-8859-1"?>
<!-- Generator: Adobe Illustrator 19.0.0, SVG Export Plug-In . SVG Version: 6.00 Build 0)  -->
<svg version="1.1" id="Layer_1" xmlns="http://www.w3.org/2000/svg" xmlns:xlink="http://www.w3.org/1999/xlink" x="0px" y="0px"
	 viewBox="0 0 512 512" style="enable-background:new 0 0 512 512;" xml:space="preserve">
<path style="fill:#C9E3F7;" d="M488.552,311.108l-61.11,23.876l-45.397-26.21l75.073-31.155l-13.276-31.994l-99.465,41.277
	L326.538,256l17.929-31.057l47.316,18.486l12.606-32.264l-21.527-8.41l44.58-25.738l61.11,23.876l12.606-32.264L445.2,146.766
	l9.046-59.393l-34.244-5.216l-9.878,64.861l-44.58,25.738l3.48-22.848l-34.244-5.216l-7.648,50.219h-35.862l-17.931-31.057
	l81.958-65.567L333.658,71.24l-60.338,48.27V68.034l51.232-40.986L302.913,0l-46.913,37.529L209.086,0l-21.638,27.049l51.232,40.986
	v52.42l-64.518-49.437l-21.068,27.494l85.477,65.498l-17.84,30.902h-35.862l-7.648-50.219l-34.244,5.216l3.48,22.848l-44.579-25.738
	l-9.879-64.861l-34.244,5.214l9.045,59.393L10.84,168.627l12.606,32.264l61.111-23.876l44.579,25.738l-21.527,8.41l12.606,32.264
	l47.315-18.486l17.93,31.057l-17.929,31.057L69.77,248.861l-12.606,32.264l71.973,28.119l-44.579,25.738l-61.111-23.875
	L10.84,343.372l55.959,21.862l-9.045,59.393l34.244,5.216l9.879-64.861l45.396-26.21l-10.556,80.593l34.346,4.499l13.985-106.776
	h35.681l17.93,31.057l-39.666,31.736l21.638,27.049l18.047-14.438v51.476l-51.232,40.985L209.086,512l46.913-37.529L302.913,512
	l21.638-27.049l-51.232-40.986v-51.476l18.047,14.438l21.638-27.048l-39.667-31.733l17.93-31.057h35.862l15.804,103.761
	l34.244-5.217l-11.634-76.389l44.58,25.738l9.878,64.861l34.244-5.216l-9.046-59.393l55.959-21.862L488.552,311.108z
	 M255.999,308.897l-15.27-26.448h-30.54L225.459,256l-15.27-26.448h30.54l15.27-26.448l15.27,26.448h30.54L286.54,256l15.27,26.448
	h-30.54L255.999,308.897z"/>
<polygon style="fill:#AED5F3;" points="488.552,311.108 427.442,334.984 382.045,308.773 457.118,277.618 443.841,245.624 
	344.377,286.902 326.538,256 344.467,224.942 391.783,243.429 404.39,211.164 382.863,202.755 427.442,177.016 488.552,200.892 
	501.158,168.627 445.2,146.765 454.245,87.372 420.001,82.157 410.123,147.018 365.543,172.756 369.023,149.908 334.777,144.692 
	327.129,194.912 291.268,194.912 273.338,163.855 355.296,98.289 333.657,71.241 273.319,119.51 273.319,68.034 324.551,27.049 
	302.913,0 255.999,37.529 255.999,203.103 271.27,229.552 301.81,229.552 286.54,256 301.81,282.448 271.27,282.448 
	255.999,308.897 255.999,474.469 302.913,512 324.551,484.951 273.319,443.965 273.319,392.49 291.366,406.927 313.004,379.879 
	273.338,348.145 291.268,317.088 327.129,317.088 342.933,420.849 377.177,415.632 365.543,339.244 410.123,364.982 
	420.001,429.842 454.245,424.628 445.2,365.234 501.158,343.372 "/>
<g>
</g>
<g>
</g>
<g>
</g>
<g>
</g>
<g>
</g>
<g>
</g>
<g>
</g>
<g>
</g>
<g>
</g>
<g>
</g>
<g>
</g>
<g>
</g>
<g>
</g>
<g>
</g>
<g>
</g>
</svg>
