<?xml version="1.0" encoding="iso-8859-1"?>
<!-- Generator: Adobe Illustrator 19.0.0, SVG Export Plug-In . SVG Version: 6.00 Build 0)  -->
<svg version="1.1" id="Layer_1" xmlns="http://www.w3.org/2000/svg" xmlns:xlink="http://www.w3.org/1999/xlink" x="0px" y="0px"
	 viewBox="0 0 512 512" style="enable-background:new 0 0 512 512;" xml:space="preserve">
<path style="fill:#C9E3F7;" d="M512,238.933h-58.131l30.937-34.031l-25.256-22.962l-51.811,56.992h-56.532l11.184-27.002
	l-27.002-11.185l39.974-39.974l76.934,3.664l1.624-34.095l-45.939-2.188l41.104-41.104l-24.136-24.136l-41.104,41.104l-2.188-45.939
	l-34.095,1.624l3.664,76.934l-39.974,39.974l-11.185-27.002l-27.002,11.184v-56.532l56.991-51.811l-22.96-25.256l-34.031,30.937V0
	h-34.133v58.131l-34.031-30.937l-22.96,25.256l56.991,51.811v56.532l-27.002-11.184l-11.185,27.002l-39.974-39.974l3.664-76.934
	l-34.095-1.624l-2.188,45.939L87.049,62.912L62.912,87.049l41.104,41.104l-45.939,2.188l1.624,34.095l76.934-3.664l39.974,39.974
	l-27.003,11.185l11.186,27.002h-56.53L52.45,181.942l-25.256,22.96l30.937,34.031H0v34.133h58.131l-30.937,34.031l25.256,22.961
	l51.811-56.992h56.532l-11.185,27.002l27.003,11.185l-39.974,39.974l-76.934-3.664l-1.624,34.095l45.939,2.188l-41.104,41.105
	l24.136,24.136l41.104-41.105l2.188,45.939l34.095-1.624l-3.664-76.934l39.974-39.974l11.185,27.002l27.002-11.184v56.532
	l-56.991,51.811l22.962,25.256l34.03-30.937V512h34.133v-58.131l34.031,30.937l22.961-25.256l-56.992-51.811v-56.532l27.002,11.184
	l11.185-27.002l39.974,39.974l-3.664,76.934l34.095,1.624l2.188-45.939l41.105,41.104l24.136-24.136l-41.105-41.104l45.939-2.188
	l-1.624-34.095l-76.934,3.664l-39.974-39.974l27.002-11.185l-11.184-27.002h56.532l51.811,56.991l25.256-22.961l-30.937-34.03H512
	V238.933z M317.795,281.597l-25.597,10.602l-10.602,25.597L256,307.193l-25.597,10.602l-10.602-25.597l-25.597-10.602L204.807,256
	l-10.602-25.597l25.597-10.602l10.602-25.597L256,204.807l25.597-10.602l10.602,25.597l25.597,10.602L307.193,256L317.795,281.597z"
	/>
<polygon style="fill:#AED5F3;" points="512,238.933 453.869,238.933 484.806,204.902 459.55,181.942 407.739,238.933 
	351.207,238.933 362.391,211.932 335.39,200.746 375.364,160.773 452.299,164.435 453.922,130.342 407.983,128.154 449.088,87.049 
	424.951,62.912 383.846,104.017 381.658,58.078 347.565,59.701 351.227,136.636 311.254,176.61 300.068,149.609 273.067,160.793 
	273.067,104.261 330.058,52.45 307.098,27.194 273.067,58.131 273.067,0 256,0 256,204.807 281.597,194.205 292.198,219.802 
	317.795,230.403 307.193,256 317.795,281.597 292.198,292.198 281.597,317.795 256,307.193 256,512 273.067,512 273.067,453.869 
	307.098,484.806 330.058,459.55 273.067,407.739 273.067,351.207 300.068,362.391 311.254,335.39 351.227,375.364 347.565,452.299 
	381.658,453.922 383.846,407.983 424.951,449.088 449.088,424.951 407.983,383.846 453.922,381.658 452.299,347.565 
	375.364,351.227 335.39,311.254 362.391,300.068 351.207,273.067 407.739,273.067 459.55,330.058 484.806,307.098 453.869,273.067 
	512,273.067 "/>
<g>
</g>
<g>
</g>
<g>
</g>
<g>
</g>
<g>
</g>
<g>
</g>
<g>
</g>
<g>
</g>
<g>
</g>
<g>
</g>
<g>
</g>
<g>
</g>
<g>
</g>
<g>
</g>
<g>
</g>
</svg>
