<?xml version="1.0" encoding="iso-8859-1"?>
<!-- Generator: Adobe Illustrator 19.0.0, SVG Export Plug-In . SVG Version: 6.00 Build 0)  -->
<svg version="1.1" id="Capa_1" xmlns="http://www.w3.org/2000/svg" xmlns:xlink="http://www.w3.org/1999/xlink" x="0px" y="0px"
	 viewBox="0 0 511.999 511.999" style="enable-background:new 0 0 511.999 511.999;" xml:space="preserve">
<path style="fill:#7EC66A;" d="M453.331,264.269c41.693-24.153,56.765-77.844,33.678-120.138
	c-9.599-17.585-24.181-30.621-40.992-38.371c-6.186-2.852-11.652-7.091-15.891-12.422c-17.466-21.956-48.411-29.645-74.66-16.82
	c-17.692,8.644-29.339,24.698-33.038,42.596c-1.9,9.194-5.893,17.851-12.144,24.854c-17.094,19.15-20.859,47.822-7.324,71.267
	c6.756,11.703,16.801,20.318,28.291,25.368c5.203,2.286,9.98,5.443,13.992,9.467C373.174,278.098,417.459,285.05,453.331,264.269z"
	/>
<path style="fill:#67B758;" d="M331.25,240.606c5.203,2.286,9.98,5.443,13.992,9.467c27.933,28.024,72.217,34.976,108.089,14.197
	c20.649-11.962,34.768-31.169,40.956-52.649c-16.948-10.943-42.192-21.171-67.218-21.171c-10.374,0-20.654,1.902-27.698,3.57
	c-5.725,1.356-11.645,1.815-17.482,1.076c-4.684-0.593-9.412-0.892-14.131-0.892c-0.002,0-0.004,0-0.007,0
	c-21.308,0-46.26,9.612-64.697,21.2C309.811,227.022,319.814,235.58,331.25,240.606z"/>
<path style="fill:#92DD7A;" d="M347.493,431.022c41.764,24.031,95.797,10.237,120.881-30.903
	c10.429-17.106,14.428-36.252,12.735-54.686c-0.623-6.782,0.315-13.636,2.811-19.973c10.282-26.104,1.468-56.747-22.764-73.067
	c-16.332-11-36.058-13.059-53.408-7.314c-8.911,2.952-18.406,3.822-27.597,1.91c-25.132-5.228-51.845,5.847-65.381,29.291
	c-6.756,11.703-9.196,24.709-7.824,37.185c0.621,5.649,0.277,11.365-1.202,16.85C295.439,368.518,311.56,410.346,347.493,431.022z"
	/>
<path style="fill:#7EC66A;" d="M306.945,313.465c0.621,5.649,0.277,11.365-1.202,16.85c-10.303,38.203,5.818,80.031,41.75,100.706
	c20.684,11.901,44.377,14.525,66.073,9.144c1.002-20.149-2.761-47.125-15.274-68.798c-5.187-8.985-11.974-16.936-16.941-22.202
	c-4.036-4.28-7.394-9.177-9.673-14.602c-1.829-4.354-3.933-8.597-6.293-12.684c-0.001-0.002-0.002-0.004-0.003-0.006
	c-10.655-18.454-31.454-35.257-50.708-45.428C307.989,288.106,305.58,301.048,306.945,313.465z"/>
<path style="fill:#67B758;" d="M150.162,422.739c0.07,48.184,39.032,88.082,87.203,89.235c20.029,0.479,38.609-5.63,53.727-16.315
	c5.562-3.931,11.967-6.545,18.703-7.552c27.747-4.148,49.879-27.102,51.897-56.248c1.36-19.644-6.719-37.757-20.371-49.91
	c-7.012-6.242-12.513-14.03-15.452-22.945c-8.038-24.378-30.986-41.976-58.057-41.976c-13.514,0-25.997,4.391-36.115,11.817
	c-4.581,3.362-9.704,5.922-15.195,7.384C178.265,346.408,150.101,381.283,150.162,422.739z"/>
<path style="fill:#5AAA4F;" d="M231.695,328.845c-4.581,3.362-9.704,5.922-15.195,7.384c-38.236,10.179-66.4,45.054-66.339,86.51
	c0.035,23.863,9.609,45.695,25.117,61.793c17.951-9.206,39.43-25.954,51.943-47.627c5.187-8.985,8.68-18.838,10.757-25.772
	c1.689-5.635,4.251-10.993,7.809-15.678c2.856-3.76,5.479-7.705,7.838-11.791c0.001-0.002,0.002-0.004,0.003-0.006
	c10.655-18.453,14.805-44.868,13.988-66.629C254.178,317.071,241.765,321.454,231.695,328.845z"/>
<path style="fill:#7EC66A;" d="M58.669,247.704c-41.692,24.153-56.765,77.844-33.678,120.138
	c9.599,17.585,24.181,30.621,40.992,38.371c6.186,2.852,11.652,7.091,15.891,12.422c17.466,21.956,48.411,29.645,74.66,16.82
	c17.692-8.644,29.339-24.698,33.038-42.596c1.9-9.194,5.893-17.851,12.144-24.854c17.094-19.15,20.859-47.822,7.324-71.267
	c-6.756-11.703-16.801-20.318-28.291-25.368c-5.203-2.286-9.98-5.443-13.992-9.467C138.825,233.875,94.541,226.923,58.669,247.704z"
	/>
<path style="fill:#67B758;" d="M180.75,271.367c-5.203-2.286-9.98-5.443-13.992-9.467c-27.933-28.024-72.217-34.976-108.089-14.197
	c-20.649,11.962-34.768,31.169-40.956,52.649c16.948,10.943,42.192,21.171,67.218,21.171c10.374,0,20.654-1.902,27.698-3.57
	c5.725-1.356,11.645-1.815,17.482-1.076c4.684,0.593,9.412,0.892,14.131,0.892c0.002,0,0.004,0,0.007,0
	c21.308,0,46.26-9.612,64.697-21.2C202.19,284.951,192.186,276.393,180.75,271.367z"/>
<path style="fill:#92DD7A;" d="M164.508,80.952c-41.764-24.031-95.797-10.237-120.88,30.903
	c-10.429,17.106-14.428,36.252-12.735,54.686c0.623,6.782-0.315,13.636-2.812,19.973c-10.282,26.104-1.468,56.747,22.764,73.067
	c16.332,11,36.058,13.059,53.408,7.314c8.912-2.952,18.406-3.822,27.597-1.91c25.132,5.228,51.845-5.847,65.381-29.291
	c6.756-11.703,9.196-24.709,7.824-37.185c-0.621-5.649-0.277-11.365,1.202-16.85C216.561,143.455,200.44,101.627,164.508,80.952z"/>
<path style="fill:#7EC66A;" d="M205.055,198.508c-0.621-5.649-0.277-11.365,1.202-16.85c10.303-38.203-5.818-80.031-41.75-100.706
	c-20.684-11.901-44.377-14.525-66.073-9.144c-1.002,20.149,2.761,47.125,15.274,68.798c5.187,8.985,11.974,16.936,16.941,22.202
	c4.036,4.28,7.394,9.177,9.673,14.602c1.829,4.354,3.933,8.597,6.293,12.684c0.001,0.002,0.002,0.004,0.003,0.006
	c10.655,18.454,31.454,35.257,50.708,45.428C204.011,223.868,206.421,210.925,205.055,198.508z"/>
<path style="fill:#67B758;" d="M310.283,143.971c6.251-7.004,10.245-15.662,12.144-24.854c3.699-17.898,15.345-33.952,33.038-42.596
	C357.136,75.705,344.785-0.026,274.636,0c-20.034,0.007-38.609,5.63-53.727,16.315c-5.562,3.931-11.967,6.545-18.703,7.552
	c-27.747,4.148-49.879,27.102-51.897,56.248c-1.36,19.644,6.719,37.757,20.371,49.91c7.012,6.242,12.513,14.03,15.452,22.944
	c8.038,24.378,30.986,41.977,58.057,41.977c13.514,0,25.997-4.391,36.115-11.817c4.561-3.347,9.657-5.897,15.121-7.362
	C297.156,164.085,302.246,152.975,310.283,143.971z"/>
<path style="fill:#C93939;" d="M253.071,162.129c0.677-0.677,52.182-4.646,52.182-4.646s-15.176,34.076,22.803,68.017
	c4.727,4.224,2.043,12.072-4.273,12.61l-16.151,1.375l-6.634,22.437c-1.695,5.733-9.212,7.095-12.781,2.298
	C274.946,246.387,251.633,208.273,253.071,162.129z"/>
<path style="fill:#AF3333;" d="M302.814,182.467c-2.101-14.79,2.44-24.983,2.44-24.983s-51.505,3.968-52.182,4.645
	c-0.917,29.41,8.222,55.547,18.407,75.262C285.078,219.153,295.27,199.963,302.814,182.467z"/>
<path style="fill:#E04141;" d="M258.93,162.129c-0.677-0.677-52.182-4.646-52.182-4.646s15.176,34.076-22.803,68.017
	c-4.727,4.224-2.043,12.072,4.273,12.61l16.151,1.375l6.634,22.437c1.695,5.733,9.212,7.095,12.781,2.298
	C237.055,246.387,260.368,208.273,258.93,162.129z"/>
<path style="fill:#F44242;" d="M256,174.305l41.34,21.111c21.581,11.02,48.142,1.478,57.423-20.907
	c3.02-7.284,4.988-15.831,4.988-25.736c0-10.625-2.265-19.688-5.664-27.305c-9.598-21.512-35.737-30.066-56.716-19.354L256,123.24
	l-41.371-21.125c-20.98-10.712-47.119-2.159-56.716,19.354c-3.399,7.618-5.664,16.68-5.664,27.305
	c0,9.905,1.969,18.452,4.988,25.736c9.281,22.385,35.842,31.927,57.423,20.907L256,174.305z"/>
<path style="fill:#E04141;" d="M314.884,164.207H197.116c-8.499,0-15.453-6.954-15.453-15.453l0,0
	c0-8.499,6.954-15.453,15.453-15.453h117.768c8.499,0,15.453,6.954,15.453,15.453l0,0
	C330.337,157.253,323.383,164.207,314.884,164.207z"/>
<path style="fill:#FF737D;" d="M268.124,179.962h-24.248c-10.54,0-19.085-8.545-19.085-19.085v-24.248
	c0-10.54,8.545-19.085,19.085-19.085h24.248c10.54,0,19.085,8.545,19.085,19.085v24.248
	C287.209,171.418,278.664,179.962,268.124,179.962z"/>
<circle style="fill:#FFE477;" cx="256.003" cy="70.303" r="21.099"/>
<circle style="fill:#FFFFFF;" cx="95.194" cy="163.148" r="21.099"/>
<circle style="fill:#FFE477;" cx="95.194" cy="348.827" r="21.099"/>
<circle style="fill:#FFFFFF;" cx="256.003" cy="441.671" r="21.099"/>
<circle style="fill:#FFE477;" cx="416.812" cy="348.827" r="21.099"/>
<circle style="fill:#FFFFFF;" cx="416.812" cy="163.148" r="21.099"/>
<g>
	<circle style="fill:#7EC66A;" cx="78.173" cy="212.31" r="7.727"/>
	<circle style="fill:#7EC66A;" cx="136.795" cy="229.484" r="7.727"/>
</g>
<g>
	<circle style="fill:#67B758;" cx="178.014" cy="338.658" r="7.727"/>
	<circle style="fill:#67B758;" cx="144.521" cy="381.403" r="7.727"/>
</g>
<g>
	<circle style="fill:#5AAA4F;" cx="285.684" cy="386.368" r="7.727"/>
	<circle style="fill:#5AAA4F;" cx="312.913" cy="428.299" r="7.727"/>
</g>
<circle style="fill:#7EC66A;" cx="442.64" cy="295.667" r="7.727"/>
<circle style="fill:#67B758;" cx="403.141" cy="109.813" r="7.727"/>
<circle style="fill:#5AAA4F;" cx="313.047" cy="64.654" r="7.727"/>
<circle style="fill:#7EC66A;" cx="388.573" cy="284.046" r="7.727"/>
<g>
</g>
<g>
</g>
<g>
</g>
<g>
</g>
<g>
</g>
<g>
</g>
<g>
</g>
<g>
</g>
<g>
</g>
<g>
</g>
<g>
</g>
<g>
</g>
<g>
</g>
<g>
</g>
<g>
</g>
</svg>
